<?xml version="1.0" encoding="UTF-8"?>
<svg version="1.1" xmlns="http://www.w3.org/2000/svg" width="1024" height="1024">
<path d="M0 0 C337.92 0 675.84 0 1024 0 C1024 337.92 1024 675.84 1024 1024 C686.08 1024 348.16 1024 0 1024 C0 686.08 0 348.16 0 0 Z " fill="#FDFDFD" transform="translate(0,0)"/>
<path d="M0 0 C3.70354444 0.00913367 7.40701625 -0.00495993 11.11054575 -0.01591969 C18.34631861 -0.03362116 25.58192464 -0.02990269 32.81770379 -0.01826912 C38.70253698 -0.00920258 44.58732371 -0.00802465 50.47216189 -0.01236439 C51.3125726 -0.01297732 52.15298331 -0.01359025 53.01886101 -0.01422176 C54.72660277 -0.01550077 56.43434452 -0.01679763 58.14208626 -0.01811212 C74.12091257 -0.02949321 90.0996468 -0.01644278 106.078458 0.00508934 C119.76448278 0.02296135 133.45037181 0.01985058 147.13639414 0.0014143 C163.06308387 -0.02003058 178.9896931 -0.02839823 194.91639525 -0.01613665 C196.61723509 -0.01486256 198.31807495 -0.01360508 200.01891482 -0.01236439 C201.27390309 -0.01143873 201.27390309 -0.01143873 202.55424466 -0.01049438 C208.42689361 -0.00705256 214.29949115 -0.01284446 220.17213213 -0.0222826 C227.33618491 -0.03354413 234.50006255 -0.03037565 241.66409547 -0.00915962 C245.31353723 0.0012948 248.96268786 0.00556958 252.61212695 -0.00775623 C256.58058793 -0.02202696 260.54858055 -0.00489611 264.51702464 0.0149641 C266.22061612 0.00157977 266.22061612 0.00157977 267.95862359 -0.01207495 C279.17755751 0.09617491 289.91243085 3.033304 299.86613047 8.21039867 C300.53265635 8.55288647 301.19918223 8.89537426 301.88590586 9.24824047 C320.90178719 19.37340142 332.32383793 36.42048722 338.67863047 56.52289867 C339.56699316 59.55630212 339.8054422 62.24941272 339.81005824 65.40852356 C339.81389938 66.39652161 339.81774053 67.38451967 339.82169807 68.40245706 C339.82083159 69.48560321 339.81996511 70.56874937 339.81907237 71.68471813 C339.82352905 73.41356276 339.82352905 73.41356276 339.82807577 75.17733353 C339.83525505 78.37739249 339.83793502 81.57741874 339.83867323 84.77748454 C339.84052496 88.22900056 339.8480732 91.68050497 339.85480845 95.13201427 C339.86839102 102.68212895 339.87441718 110.23223832 339.87881911 117.78236318 C339.88158327 122.50091651 339.8858211 127.2194678 339.89032328 131.93801975 C339.9025189 145.01242761 339.91281565 158.08683383 339.91619837 171.16124725 C339.91641794 171.99813493 339.9166375 172.83502261 339.91686372 173.69727052 C339.917082 174.53613146 339.91730028 175.3749924 339.91752517 176.23927337 C339.91796863 177.93903975 339.9184152 179.63880613 339.91886485 181.3385725 C339.91908628 182.18171043 339.91930771 183.02484837 339.91953585 183.89353593 C339.92347791 197.53401027 339.94091251 211.17443099 339.96422437 224.81488464 C339.98798706 238.83288966 340.00040256 252.85086785 340.00156629 266.86889333 C340.00248062 274.73381416 340.00817108 282.59866525 340.0263859 290.46356678 C340.04185381 297.16595396 340.04686841 303.86824986 340.0386478 310.57065151 C340.03476398 313.98518068 340.03555828 317.39952643 340.04970515 320.81403255 C340.16648499 354.75628573 340.16648499 354.75628573 331.67863047 370.52289867 C331.01540781 371.7836018 331.01540781 371.7836018 330.33878672 373.06977367 C326.63023628 379.6855811 321.98283213 385.12740267 316.67863047 390.52289867 C316.06374766 391.15067211 315.44886485 391.77844555 314.81534922 392.42524242 C303.45779601 403.15046933 287.08083387 410.62624814 271.37602103 410.65711975 C270.32046411 410.66157759 269.26490719 410.66603544 268.17736369 410.67062837 C266.44714488 410.67035183 266.44714488 410.67035183 264.68197215 410.67006969 C263.45167271 410.67374638 262.22137327 410.67742307 260.95379204 410.68121117 C257.54128828 410.69032195 254.12883256 410.6949442 250.71632123 410.69760048 C247.03439787 410.70151068 243.35248834 410.71108872 239.67057383 410.71981335 C230.7781779 410.73956071 221.88578085 410.74964316 212.99336848 410.75854114 C208.80094908 410.7629281 204.60853094 410.76829396 200.41611254 410.77353001 C186.47010621 410.79054287 172.52410066 410.80503456 158.57808554 410.81227875 C154.9603147 410.81418851 151.34254387 410.81610886 147.72477305 410.81806469 C146.37607535 410.8187903 146.37607535 410.8187903 145.00013123 410.81953057 C130.45183435 410.82782155 115.90361995 410.85314243 101.35535904 410.88564537 C86.40279776 410.91877776 71.45027829 410.9367332 56.49768013 410.93992299 C48.10901796 410.9420827 39.72047596 410.95075176 31.33184969 410.97638416 C24.18373976 410.99817601 17.03577917 411.00610025 9.88763978 410.99641738 C6.24610191 410.99189667 2.6048716 410.9936271 -1.03662336 411.01317883 C-28.41812086 411.15182197 -49.2092303 407.92707155 -69.71980703 388.21821117 C-84.67490638 372.65061628 -90.65135895 352.86519781 -90.58879507 331.6331892 C-90.59332618 330.4868958 -90.59785729 329.3406024 -90.60252571 328.15957284 C-90.61511498 324.34541829 -90.61355287 320.53140754 -90.61189687 316.71723461 C-90.61680284 313.97150674 -90.62463597 311.22578876 -90.6322521 308.48006725 C-90.64880336 301.81162375 -90.65435896 295.14321563 -90.65547685 288.47475329 C-90.65643005 283.04989141 -90.66055384 277.62504112 -90.6668781 272.20018291 C-90.68447386 256.79130613 -90.69371949 241.3824571 -90.69221716 225.9735702 C-90.69213724 225.14438473 -90.69205733 224.31519926 -90.691975 223.46088696 C-90.69189324 222.63067938 -90.69181147 221.8004718 -90.69172724 220.94510642 C-90.69091463 207.49581625 -90.71005022 194.04663814 -90.73825173 180.59738037 C-90.76703635 166.75994989 -90.78078899 152.92257397 -90.77906418 139.08511281 C-90.77840224 131.32758898 -90.78380822 123.57018268 -90.80542028 115.81268597 C-90.82370563 109.20742614 -90.82791943 102.60233712 -90.81440143 95.99706283 C-90.80790866 92.63299177 -90.8098284 89.2695127 -90.82510793 85.90543079 C-90.93162009 60.81959127 -87.33748093 40.27496234 -69.32136953 21.52289867 C-63.67052425 16.00702581 -57.55380017 11.82270397 -50.57136953 8.21039867 C-49.97703115 7.89691479 -49.38269277 7.5834309 -48.77034414 7.2604475 C-33.04333917 -0.41731912 -17.13205063 -0.06261429 0 0 Z " fill="#FDFDFD" transform="translate(379.32136952877045,171.47710132598877)"/>
<path d="M0 0 C3.70354444 0.00913367 7.40701625 -0.00495993 11.11054575 -0.01591969 C18.34631861 -0.03362116 25.58192464 -0.02990269 32.81770379 -0.01826912 C38.70253698 -0.00920258 44.58732371 -0.00802465 50.47216189 -0.01236439 C51.3125726 -0.01297732 52.15298331 -0.01359025 53.01886101 -0.01422176 C54.72660277 -0.01550077 56.43434452 -0.01679763 58.14208626 -0.01811212 C74.12091257 -0.02949321 90.0996468 -0.01644278 106.078458 0.00508934 C119.76448278 0.02296135 133.45037181 0.01985058 147.13639414 0.0014143 C163.06308387 -0.02003058 178.9896931 -0.02839823 194.91639525 -0.01613665 C196.61723509 -0.01486256 198.31807495 -0.01360508 200.01891482 -0.01236439 C201.27390309 -0.01143873 201.27390309 -0.01143873 202.55424466 -0.01049438 C208.42689361 -0.00705256 214.29949115 -0.01284446 220.17213213 -0.0222826 C227.33618491 -0.03354413 234.50006255 -0.03037565 241.66409547 -0.00915962 C245.31353723 0.0012948 248.96268786 0.00556958 252.61212695 -0.00775623 C256.58058793 -0.02202696 260.54858055 -0.00489611 264.51702464 0.0149641 C266.22061612 0.00157977 266.22061612 0.00157977 267.95862359 -0.01207495 C279.17755751 0.09617491 289.91243085 3.033304 299.86613047 8.21039867 C300.53265635 8.55288647 301.19918223 8.89537426 301.88590586 9.24824047 C320.90178719 19.37340142 332.32383793 36.42048722 338.67863047 56.52289867 C339.56699316 59.55630212 339.8054422 62.24941272 339.81005824 65.40852356 C339.81389938 66.39652161 339.81774053 67.38451967 339.82169807 68.40245706 C339.82083159 69.48560321 339.81996511 70.56874937 339.81907237 71.68471813 C339.82352905 73.41356276 339.82352905 73.41356276 339.82807577 75.17733353 C339.83525505 78.37739249 339.83793502 81.57741874 339.83867323 84.77748454 C339.84052496 88.22900056 339.8480732 91.68050497 339.85480845 95.13201427 C339.86839102 102.68212895 339.87441718 110.23223832 339.87881911 117.78236318 C339.88158327 122.50091651 339.8858211 127.2194678 339.89032328 131.93801975 C339.9025189 145.01242761 339.91281565 158.08683383 339.91619837 171.16124725 C339.91641794 171.99813493 339.9166375 172.83502261 339.91686372 173.69727052 C339.917082 174.53613146 339.91730028 175.3749924 339.91752517 176.23927337 C339.91796863 177.93903975 339.9184152 179.63880613 339.91886485 181.3385725 C339.91908628 182.18171043 339.91930771 183.02484837 339.91953585 183.89353593 C339.92347791 197.53401027 339.94091251 211.17443099 339.96422437 224.81488464 C339.98798706 238.83288966 340.00040256 252.85086785 340.00156629 266.86889333 C340.00248062 274.73381416 340.00817108 282.59866525 340.0263859 290.46356678 C340.04185381 297.16595396 340.04686841 303.86824986 340.0386478 310.57065151 C340.03476398 313.98518068 340.03555828 317.39952643 340.04970515 320.81403255 C340.16648499 354.75628573 340.16648499 354.75628573 331.67863047 370.52289867 C331.01540781 371.7836018 331.01540781 371.7836018 330.33878672 373.06977367 C326.63023628 379.6855811 321.98283213 385.12740267 316.67863047 390.52289867 C316.06374766 391.15067211 315.44886485 391.77844555 314.81534922 392.42524242 C303.45779601 403.15046933 287.08083387 410.62624814 271.37602103 410.65711975 C270.32046411 410.66157759 269.26490719 410.66603544 268.17736369 410.67062837 C266.44714488 410.67035183 266.44714488 410.67035183 264.68197215 410.67006969 C263.45167271 410.67374638 262.22137327 410.67742307 260.95379204 410.68121117 C257.54128828 410.69032195 254.12883256 410.6949442 250.71632123 410.69760048 C247.03439787 410.70151068 243.35248834 410.71108872 239.67057383 410.71981335 C230.7781779 410.73956071 221.88578085 410.74964316 212.99336848 410.75854114 C208.80094908 410.7629281 204.60853094 410.76829396 200.41611254 410.77353001 C186.47010621 410.79054287 172.52410066 410.80503456 158.57808554 410.81227875 C154.9603147 410.81418851 151.34254387 410.81610886 147.72477305 410.81806469 C146.37607535 410.8187903 146.37607535 410.8187903 145.00013123 410.81953057 C130.45183435 410.82782155 115.90361995 410.85314243 101.35535904 410.88564537 C86.40279776 410.91877776 71.45027829 410.9367332 56.49768013 410.93992299 C48.10901796 410.9420827 39.72047596 410.95075176 31.33184969 410.97638416 C24.18373976 410.99817601 17.03577917 411.00610025 9.88763978 410.99641738 C6.24610191 410.99189667 2.6048716 410.9936271 -1.03662336 411.01317883 C-28.41812086 411.15182197 -49.2092303 407.92707155 -69.71980703 388.21821117 C-84.67490638 372.65061628 -90.65135895 352.86519781 -90.58879507 331.6331892 C-90.59332618 330.4868958 -90.59785729 329.3406024 -90.60252571 328.15957284 C-90.61511498 324.34541829 -90.61355287 320.53140754 -90.61189687 316.71723461 C-90.61680284 313.97150674 -90.62463597 311.22578876 -90.6322521 308.48006725 C-90.64880336 301.81162375 -90.65435896 295.14321563 -90.65547685 288.47475329 C-90.65643005 283.04989141 -90.66055384 277.62504112 -90.6668781 272.20018291 C-90.68447386 256.79130613 -90.69371949 241.3824571 -90.69221716 225.9735702 C-90.69213724 225.14438473 -90.69205733 224.31519926 -90.691975 223.46088696 C-90.69189324 222.63067938 -90.69181147 221.8004718 -90.69172724 220.94510642 C-90.69091463 207.49581625 -90.71005022 194.04663814 -90.73825173 180.59738037 C-90.76703635 166.75994989 -90.78078899 152.92257397 -90.77906418 139.08511281 C-90.77840224 131.32758898 -90.78380822 123.57018268 -90.80542028 115.81268597 C-90.82370563 109.20742614 -90.82791943 102.60233712 -90.81440143 95.99706283 C-90.80790866 92.63299177 -90.8098284 89.2695127 -90.82510793 85.90543079 C-90.93162009 60.81959127 -87.33748093 40.27496234 -69.32136953 21.52289867 C-63.67052425 16.00702581 -57.55380017 11.82270397 -50.57136953 8.21039867 C-49.97703115 7.89691479 -49.38269277 7.5834309 -48.77034414 7.2604475 C-33.04333917 -0.41731912 -17.13205063 -0.06261429 0 0 Z M-51.32136953 46.52289867 C-58.9097853 56.52274434 -61.93984339 67.81672409 -61.82257497 80.21137524 C-61.82810937 81.32388779 -61.83364377 82.43640034 -61.83934587 83.58262539 C-61.85285968 87.27649172 -61.83803302 90.96967146 -61.82307851 94.66352367 C-61.82686506 97.32561099 -61.83221623 99.9876538 -61.83945119 102.64972973 C-61.85332892 109.10921097 -61.84586817 115.5684957 -61.83077561 122.02796745 C-61.81384736 129.56217132 -61.81713435 137.09632716 -61.82086969 144.63054419 C-61.82673826 158.08037895 -61.81261621 171.53011989 -61.78792226 184.97992992 C-61.76400446 198.00861153 -61.7569193 211.0371678 -61.76741445 224.06586742 C-61.77884324 238.27890345 -61.78072953 252.49188161 -61.76631635 266.70491695 C-61.76479064 268.22265402 -61.76327028 269.74039109 -61.76175535 271.25812817 C-61.76099753 272.00473776 -61.76023972 272.75134736 -61.75945894 273.52058148 C-61.75473125 278.76293983 -61.75655676 284.00527219 -61.76082075 289.24763012 C-61.76576532 295.64287633 -61.75968369 302.03800444 -61.73992645 308.43322372 C-61.73010592 311.69148916 -61.72651907 314.9495403 -61.73281896 318.20781994 C-61.73880755 321.75021021 -61.72619764 325.2920787 -61.70904958 328.83442211 C-61.71505963 329.84962051 -61.72106967 330.86481892 -61.72726184 331.91078091 C-61.60511103 345.86235066 -57.36341467 359.48085353 -47.32136953 369.52289867 C-36.47437468 378.79181902 -25.82141258 382.14223221 -11.65929067 382.03756237 C-10.44201689 382.0445079 -9.22474311 382.05145343 -7.97058225 382.05860943 C-4.6267397 382.07363097 -1.28379779 382.07098756 2.06000221 382.0604564 C5.67976292 382.05341892 9.2994358 382.0694966 12.91917002 382.08245373 C19.99692915 382.10402393 27.07452706 382.10398476 34.15230821 382.09582818 C39.90897326 382.08951141 45.66559153 382.09068055 51.42225611 382.09710026 C52.24364576 382.09800191 53.06503541 382.09890357 53.91131566 382.09983255 C55.58032302 382.10168388 57.24933038 382.10354644 58.91833772 382.10542011 C74.54663065 382.12197449 90.17483315 382.11329976 105.80312063 382.09643453 C120.07753599 382.08174225 134.35174077 382.09636347 148.62612902 382.12520469 C163.30998059 382.15465054 177.99373514 382.16555571 192.67761493 382.15602249 C194.3408677 382.15500002 196.00412049 382.1540054 197.6673733 382.15303898 C198.48556834 382.15256259 199.30376337 382.1520862 200.1467522 382.15159537 C205.89014176 382.14943795 211.63343876 382.1591995 217.37680781 382.17381001 C224.38542048 382.19139159 231.39376493 382.19113308 238.40236734 382.16845835 C241.97286916 382.15736818 245.54289946 382.15403321 249.11338007 382.17275906 C274.08958402 382.49350176 274.08958402 382.49350176 295.49503672 370.69086742 C305.80867099 360.45103376 310.85884029 348.85170778 310.95544147 334.32241368 C310.95234427 333.28000012 310.94924707 332.23758656 310.94605601 331.16358471 C310.95058712 330.03815565 310.95511823 328.91272659 310.95978665 327.75319362 C310.97242066 323.99181628 310.9708109 320.23058391 310.96915781 316.46918774 C310.97514368 313.76829525 310.98189307 311.06741401 310.98951304 308.3665266 C311.00609195 301.7969377 311.01162118 295.2273847 311.0127378 288.65777662 C311.01368976 283.31481561 311.01780747 277.97186639 311.02413905 272.62890911 C311.0417431 257.46379843 311.05097925 242.29871599 311.0494781 227.13359502 C311.04939819 226.31686015 311.04931827 225.50012528 311.04923594 224.65864086 C311.0491133 223.43203395 311.0491133 223.43203395 311.04898818 222.1806471 C311.04817555 208.93283436 311.06730953 195.68513539 311.09551267 182.43735555 C311.12427663 168.81812679 311.13805103 155.19895345 311.13632512 141.57969356 C311.13566242 133.94015079 311.14110179 126.30072729 311.16268122 118.66121197 C311.18093935 112.15607081 311.18520255 105.651103 311.17166238 99.14594725 C311.16515572 95.83087209 311.16712686 92.51639884 311.18236887 89.20131207 C311.19786202 85.59729683 311.18848504 81.99414458 311.17310679 78.39014721 C311.18853748 76.8399112 311.18853748 76.8399112 311.2042799 75.25835729 C311.08815692 62.88074699 306.88123405 52.72961407 298.67863047 43.52289867 C290.63446805 35.70218521 280.94576537 30.40726922 269.56039584 30.39147091 C268.52054675 30.38762976 267.48069766 30.38378862 266.409338 30.37983108 C265.26830797 30.38069756 264.12727794 30.38156404 262.95167124 30.38245678 C261.7384106 30.37948566 260.52514995 30.37651453 259.27512383 30.37345338 C255.90578273 30.36627265 252.53649261 30.36359402 249.16714752 30.36285591 C245.53372164 30.36100463 241.9003068 30.35345684 238.26688731 30.3467207 C230.3204267 30.33313886 222.37397113 30.32711267 214.42750084 30.32271004 C209.46442237 30.31994693 204.50134584 30.31570941 199.53826869 30.31120586 C185.79388071 30.29901258 172.0494943 30.28871391 158.30510104 30.28533077 C157.42540899 30.28511121 156.54571694 30.28489164 155.63936756 30.28466542 C154.75758005 30.28444714 153.87579254 30.28422887 152.9672842 30.28400397 C151.18047384 30.28356051 149.39366349 30.28311395 147.60685313 30.2826643 C146.72053504 30.28244287 145.83421694 30.28222144 144.92104073 30.2819933 C130.56587194 30.27804697 116.21075398 30.26059824 101.85560481 30.23730478 C87.11328609 30.21357645 72.37099284 30.20112822 57.62865472 30.19996285 C49.35309333 30.19904684 41.07759813 30.19331322 32.802055 30.17514324 C25.7536769 30.15972215 18.70538544 30.15463356 11.65699367 30.16288134 C8.0628388 30.16678098 4.46885827 30.16589211 0.87472498 30.151824 C-3.02776082 30.13668913 -6.93000295 30.14497213 -10.83250844 30.155406 C-11.96015414 30.14734959 -13.08779984 30.13929319 -14.24961662 30.13099265 C-29.00312216 30.22310417 -41.22918811 35.68808503 -51.32136953 46.52289867 Z " fill="#111212" transform="translate(379.32136952877045,171.47710132598877)"/>
<path d="M0 0 C8.50089958 4.9534088 13.66578667 12.88247088 16.65625 22.12109375 C17.61225844 27.75738696 17.14874834 32.91080996 14.31640625 37.92578125 C11.17217784 42.08356094 7.36512111 45.62912198 3.6171875 49.234375 C1.27093809 51.49446271 -0.91926813 53.82478408 -3.03125 56.30859375 C-6.21347249 60.04828588 -9.66612084 63.45935167 -13.16015625 66.90625 C-15.12349671 68.89768836 -16.96454669 70.93411953 -18.78125 73.05859375 C-22.2884444 77.15167678 -26.10100158 80.89334079 -29.93359375 84.6796875 C-32.61229532 87.39312102 -35.08983118 90.22886398 -37.56640625 93.125 C-40.29108093 96.18501926 -43.23253072 99.01816219 -46.1484375 101.89453125 C-48.78381743 104.56742549 -51.22141489 107.37477678 -53.6640625 110.22265625 C-55.86784046 112.71343786 -58.22991741 115.01817374 -60.6015625 117.34765625 C-62.39090827 119.1690979 -64.05663532 121.05823654 -65.71875 122.99609375 C-68.31009205 126.00576905 -71.01629783 128.83197991 -73.84375 131.62109375 C-76.62996141 134.36965365 -79.29683392 137.14969166 -81.84375 140.12109375 C-84.39066608 143.09249584 -87.05753859 145.87253385 -89.84375 148.62109375 C-92.58875542 151.3291294 -95.2164591 154.06278624 -97.71875 156.99609375 C-101.04689135 160.88150528 -104.65110697 164.45806602 -108.28979492 168.04760742 C-111.58384366 171.31441855 -114.65841808 174.69985754 -117.66796875 178.2265625 C-120.10907539 180.98632175 -122.746656 183.53320351 -125.37109375 186.1171875 C-127.91712829 188.70355526 -130.26396557 191.43644655 -132.62890625 194.1875 C-134.84126463 196.68207266 -137.20532337 198.99555017 -139.5859375 201.328125 C-141.47229056 203.25220512 -143.21912799 205.25979395 -144.96875 207.30859375 C-149.82327858 212.89832933 -154.07793383 216.53698641 -161.66796875 217.37890625 C-168.65753546 217.70001958 -173.95852079 215.90552345 -179.40432167 211.42622566 C-181.62616365 209.34258622 -183.77745921 207.20517579 -185.9152832 205.03540039 C-186.73093246 204.22354782 -187.54658173 203.41169525 -188.38694763 202.57524109 C-191.06599832 199.90356749 -193.73042923 197.21782356 -196.39453125 194.53125 C-198.25848087 192.66491462 -200.12317212 190.79931966 -201.98857117 188.93443298 C-205.88961876 185.03151774 -209.78287452 181.12096708 -213.67114258 177.20532227 C-218.15999882 172.68497689 -222.65926163 168.17520887 -227.1646207 163.67131525 C-231.51041487 159.32674349 -235.85034401 154.97637099 -240.18733788 150.62301445 C-242.02854831 148.77544145 -243.87097099 146.92907571 -245.7146244 145.08394051 C-248.28788716 142.50634187 -250.85445729 139.92226483 -253.41918945 137.33618164 C-254.1812973 136.57498016 -254.94340515 135.81377869 -255.72860718 135.0295105 C-261.47402844 129.21401253 -265.31726867 124.36543522 -265.71875 115.99609375 C-265.52764938 106.26588715 -259.55667969 99.7814031 -252.94140625 93.25 C-248.12150251 89.29985333 -244.14153137 87.69107908 -237.90625 87.68359375 C-236.83503906 87.66425781 -235.76382812 87.64492188 -234.66015625 87.625 C-227.03232472 88.76603016 -222.09227726 93.94468516 -216.90625 99.23046875 C-216.22248291 99.91610901 -215.53871582 100.60174927 -214.83422852 101.3081665 C-213.39539309 102.75369438 -211.96014479 104.20280075 -210.52832031 105.65527344 C-208.3572812 107.85736899 -206.17585224 110.04871206 -203.9921875 112.23828125 C-202.58791937 113.65172577 -201.18425374 115.06576918 -199.78125 116.48046875 C-199.13937744 117.12659119 -198.49750488 117.77271362 -197.83618164 118.43841553 C-194.06633562 122.26691179 -190.48415736 126.21041142 -186.96920776 130.27349854 C-184.76370746 132.78040576 -182.43434233 135.14286535 -180.06640625 137.49609375 C-179.14150391 138.41777344 -178.21660156 139.33945312 -177.26367188 140.2890625 C-176.31125432 141.23312982 -175.35877969 142.17713957 -174.40625 143.12109375 C-173.4261969 144.09611761 -172.4463776 145.07137655 -171.46679688 146.046875 C-169.09472687 148.40725993 -166.7203414 150.7652628 -164.34375 153.12109375 C-161.0429576 152.02082962 -160.41894718 151.29400038 -158.28125 148.68359375 C-155.44318218 145.3295136 -152.47450656 142.204198 -149.34375 139.12109375 C-146.41256809 136.22517417 -143.57971826 133.31866804 -140.90625 130.18359375 C-138.04202626 126.83184256 -134.98040531 123.71553297 -131.84375 120.62109375 C-128.74883128 117.56771757 -125.72440703 114.49785667 -122.90625 111.18359375 C-119.89022173 107.64430275 -116.64927099 104.3861493 -113.34375 101.12109375 C-110.05907009 97.87657499 -106.83640996 94.64187017 -103.84375 91.12109375 C-100.36965506 87.03392324 -96.56573621 83.31580378 -92.75268555 79.54956055 C-89.35272432 76.1752473 -86.15604108 72.69612195 -83.05078125 69.046875 C-80.35396987 66.0044768 -77.42840604 63.19783566 -74.53515625 60.34375 C-71.92273932 57.69407935 -69.51072379 54.90936572 -67.08984375 52.0859375 C-64.61893611 49.30547543 -61.9620806 46.72991157 -59.3125 44.12109375 C-57.40388545 42.18218373 -55.61664448 40.18409824 -53.84375 38.12109375 C-50.89796205 34.69326778 -47.78199653 31.50974558 -44.53125 28.37109375 C-41.99347425 25.76081012 -39.6228326 23.03071557 -37.23486328 20.28369141 C-34.13754819 16.74173206 -30.97160718 13.26671889 -27.78125 9.80859375 C-27.14767578 9.10669922 -26.51410156 8.40480469 -25.86132812 7.68164062 C-18.76232393 0.01237657 -10.45645522 -3.92117071 0 0 Z " fill="#111212" transform="translate(630.34375,262.87890625)"/>
<path d="M0 0 C79.40006684 0 79.40006684 0 98.625 18.1875 C113.55058829 33.78916024 116.51009635 51.71677185 116.27734375 72.4375 C115.79036204 89.47459147 108.90296177 104.80813139 97 117 C70.27760017 139.87402833 32.22380633 134 0 134 C0 89.78 0 45.56 0 0 Z " fill="#101111" transform="translate(691,652)"/>
<path d="M0 0 C10.96286931 9.5022475 16.96376595 19.66897802 20.109375 33.82421875 C9.879375 33.82421875 -0.350625 33.82421875 -10.890625 33.82421875 C-12.210625 31.18421875 -13.530625 28.54421875 -14.890625 25.82421875 C-18.63385502 20.07568693 -23.890166 17.03594258 -30.140625 14.51171875 C-39.74688864 12.75057042 -49.50143329 13.05915935 -58.078125 18.11328125 C-67.30843951 24.6514207 -73.54916824 33.6399191 -75.890625 44.82421875 C-76.75319194 56.84542755 -77.49430315 69.85974633 -71.890625 80.82421875 C-71.44332031 81.72140625 -70.99601562 82.61859375 -70.53515625 83.54296875 C-65.32875679 93.0345281 -58.08475499 98.42617542 -47.890625 101.82421875 C-35.97040497 102.65808735 -24.4024796 102.00883783 -14.890625 93.82421875 C-9.48362716 87.47913936 -8.63981375 83.57016249 -6.890625 74.82421875 C-16.790625 74.82421875 -26.690625 74.82421875 -36.890625 74.82421875 C-36.890625 67.56421875 -36.890625 60.30421875 -36.890625 52.82421875 C-17.420625 52.82421875 2.049375 52.82421875 22.109375 52.82421875 C22.109375 77.39791052 21.29250397 92.5043727 4.96484375 110.140625 C-8.4939338 123.33156618 -25.97954137 127.34980887 -44.31591797 127.24414062 C-61.74280107 126.80115647 -76.83328606 119.97801081 -89.2265625 107.7265625 C-93.15519138 103.446546 -96.11044462 98.90685838 -98.890625 93.82421875 C-99.27605469 93.18355469 -99.66148438 92.54289063 -100.05859375 91.8828125 C-109.22843176 75.61601174 -109.48427486 53.56569544 -104.86328125 35.85546875 C-99.03645657 17.69636854 -88.47450797 3.45286909 -71.42578125 -5.484375 C-48.87783071 -16.27251045 -20.32074177 -15.29547725 0 0 Z " fill="#111212" transform="translate(212.890625,661.17578125)"/>
<path d="M0 0 C10.45222648 9.68803068 16.60202923 22.5407375 17.61328125 36.71484375 C17.94071318 52.58667562 14.1939672 66.29304776 3.1875 78.125 C-6.78224845 87.60882794 -18.85791727 91.96128499 -32.4375 91.8125 C-33.8910791 91.80114014 -33.8910791 91.80114014 -35.37402344 91.78955078 C-48.63979533 91.48471838 -59.78489432 86.80186377 -69.75 78 C-80.6208595 66.5104737 -84.13335542 51.45178133 -83.87109375 36.1171875 C-83.06705134 23.89063779 -78.37471044 12.12471044 -69.625 3.375 C-49.28650899 -13.01769543 -21.84683039 -17.11252855 0 0 Z " fill="#111212" transform="translate(326.625,696.625)"/>
<path d="M0 0 C11.41395144 7.39312764 19.07656971 17.55909277 22.2265625 30.7890625 C22.88776658 33.97665831 23.45492524 37.06667765 23.75 40.3125 C23.81445312 41.00085938 23.87890625 41.68921875 23.9453125 42.3984375 C24.60651442 55.66655601 19.96860408 69.3501224 11.85546875 79.73828125 C3.91703605 88.50148618 -7.8496499 94.46910941 -19.67456055 95.5300293 C-29.98407334 96.00618525 -39.94503161 96.30616637 -49.25 91.3125 C-50.53390625 90.65894531 -50.53390625 90.65894531 -51.84375 89.9921875 C-64.29582976 83.12854113 -71.53008104 73.27145741 -75.70751953 59.86791992 C-79.75666466 45.23631554 -77.89008513 30.43744292 -70.625 17.125 C-54.9484139 -6.89683343 -24.94948371 -13.73752247 0 0 Z " fill="#111212" transform="translate(427.25,692.6875)"/>
<path d="M0 0 C10.56521308 6.87251725 17.99181608 16.67359112 21.625 28.8125 C25.00654249 44.91709609 23.31150776 61.10667295 14.23828125 75.04296875 C13.72652344 75.77128906 13.21476563 76.49960937 12.6875 77.25 C12.24792969 77.88550781 11.80835938 78.52101563 11.35546875 79.17578125 C4.81819308 87.67235567 -5.87454837 93.38922592 -16.3125 95.25 C-27.50335932 96.24809186 -39.20636318 96.75622006 -49.3125 91.25 C-50.59447266 90.59644531 -50.59447266 90.59644531 -51.90234375 89.9296875 C-64.35421797 83.07647552 -70.72116663 73.28535707 -75.4140625 60.171875 C-79.51361782 45.84258817 -77.91697397 30.82690032 -70.88671875 17.6953125 C-55.19881588 -6.67348947 -25.25312186 -14.02525433 0 0 Z " fill="#111212" transform="translate(892.3125,692.75)"/>
<path d="M0 0 C8.91 0 17.82 0 27 0 C32.32495568 13.06121204 37.33840566 26.20573639 42.1418457 39.46533203 C45.31431033 50.95170052 45.31431033 50.95170052 51 61 C51.24834091 60.25053604 51.49668182 59.50107208 51.75254822 58.72889709 C54.08911729 51.67917886 56.42854352 44.63041849 58.77121639 37.58272648 C59.97561451 33.95907799 61.17888936 30.33506445 62.37963867 26.71020508 C63.53764011 23.21453059 64.69853772 19.71983052 65.86148262 16.22579765 C66.30549803 14.89004517 66.74845408 13.55394009 67.19035149 12.21748543 C67.80763982 10.35118326 68.42898631 8.48622482 69.05053711 6.62133789 C69.40361435 5.55766495 69.75669159 4.493992 70.12046814 3.39808655 C71 1 71 1 72 0 C74.07262076 -0.08767112 76.14820294 -0.10695873 78.22265625 -0.09765625 C79.48271484 -0.09443359 80.74277344 -0.09121094 82.04101562 -0.08789062 C83.38151109 -0.07953403 84.72200588 -0.07106907 86.0625 -0.0625 C87.40689942 -0.0574866 88.7513006 -0.05292342 90.09570312 -0.04882812 C93.39717941 -0.03699488 96.69856803 -0.02050971 100 0 C99.76627686 0.63123779 99.53255371 1.26247559 99.29174805 1.9128418 C93.42769791 17.7759383 87.67469251 33.67634627 81.98632812 49.60327148 C69.16153976 85.51084752 69.16153976 85.51084752 63.6875 100.125 C63.28660156 101.21111572 62.88570312 102.29723145 62.47265625 103.41625977 C57.82946591 115.66287169 52.43537622 128.17479054 40 134 C29.75476537 137.66949665 18.34425586 138.84902543 8 135 C7.88955039 128.26257354 8.29867087 121.70019789 9 115 C9.9178125 114.97421875 10.835625 114.9484375 11.78125 114.921875 C22.05414542 114.55046839 22.05414542 114.55046839 31 110 C34.75060335 105.76855007 36.06790822 101.60315032 36 96 C35.26801001 92.70951946 34.0604034 89.67273694 32.79296875 86.5546875 C32.44042526 85.64657318 32.08788177 84.73845886 31.72465515 83.80282593 C30.56212269 80.82011212 29.37488923 77.84789544 28.1875 74.875 C27.37412539 72.79981463 26.56246323 70.72395732 25.75244141 68.64746094 C23.62352985 63.20197536 21.47407764 57.76485074 19.31890869 52.32971191 C15.88591261 43.66278293 12.48274022 34.98409249 9.07754517 26.30621338 C7.88722004 23.28105667 6.68884112 20.2591916 5.48901367 17.23779297 C4.76078456 15.39295116 4.03266954 13.54806432 3.3046875 11.703125 C2.96805588 10.86155853 2.63142426 10.01999207 2.28459167 9.15292358 C1.98168716 8.38219513 1.67878265 7.61146667 1.36669922 6.81738281 C1.10122284 6.14862122 0.83574646 5.47985962 0.56222534 4.79083252 C0 3 0 3 0 0 Z " fill="#111212" transform="translate(523,688)"/>
<path d="M0 0 C1.48306641 0.0009668 1.48306641 0.0009668 2.99609375 0.00195312 C10.95388466 0.05041058 10.95388466 0.05041058 14.875 1.1875 C15.15807925 8.43747422 14.38474035 15.09711228 12.875 22.1875 C11.92238281 22.15269531 10.96976563 22.11789062 9.98828125 22.08203125 C8.10689453 22.04142578 8.10689453 22.04142578 6.1875 22 C4.94613281 21.96519531 3.70476562 21.93039062 2.42578125 21.89453125 C-1.34166932 22.20537701 -3.15294917 22.9102143 -6.125 25.1875 C-7.6057848 28.1490696 -7.47814037 31.02256295 -7.6875 34.3125 C-7.831875 36.58125 -7.97625 38.85 -8.125 41.1875 C-1.195 41.1875 5.735 41.1875 12.875 41.1875 C12.875 48.1175 12.875 55.0475 12.875 62.1875 C5.945 62.1875 -0.985 62.1875 -8.125 62.1875 C-8.125 87.5975 -8.125 113.0075 -8.125 139.1875 C-17.035 139.1875 -25.945 139.1875 -35.125 139.1875 C-35.125 113.7775 -35.125 88.3675 -35.125 62.1875 C-40.405 62.1875 -45.685 62.1875 -51.125 62.1875 C-51.125 55.2575 -51.125 48.3275 -51.125 41.1875 C-45.845 41.1875 -40.565 41.1875 -35.125 41.1875 C-35.186875 38.75375 -35.24875 36.32 -35.3125 33.8125 C-35.38183722 25.03245195 -34.34156752 16.92248655 -28.7734375 9.78515625 C-20.48573473 1.75276186 -11.08702819 -0.13840574 0 0 Z " fill="#121313" transform="translate(504.125,646.8125)"/>
<path d="M0 0 C36.60515021 0 36.60515021 0 46.91015625 9.8203125 C56.48298074 20.18579124 59.6340714 32.91024086 59.21484375 46.87890625 C58.44654091 58.04025115 55.72963355 68.96974114 47.3125 76.9375 C32.92307832 88.15358915 17.92990621 87 0 87 C0 58.29 0 29.58 0 0 Z " fill="#FCFCFB" transform="translate(719,676)"/>
<path d="M0 0 C2.64 1.32 5.28 2.64 8 4 C7.67 4.66 7.34 5.32 7 6 C6.67 6 6.34 6 6 6 C5.67 7.32 5.34 8.64 5 10 C4.54625 9.34 4.0925 8.68 3.625 8 C3.08875 7.34 2.5525 6.68 2 6 C1.34 6 0.68 6 0 6 C0.78130071 8.49552484 0.78130071 8.49552484 2 11 C5.10540926 12.21081851 5.10540926 12.21081851 9 12 C11.75041666 9.58333229 11.75041666 9.58333229 14 7 C26.22214561 11.23989476 35.39902844 24.42406611 40.890625 35.73046875 C45.21871845 45.5317095 47.81689893 54.19033748 47 65 C46.67 65.33 46.34 65.66 46 66 C45.92294389 69.15313584 45.90953688 72.28469145 45.9375 75.4375 C45.9460721 77.45377558 45.95453094 79.47005165 45.96289062 81.48632812 C45.96909424 82.55052979 45.97529785 83.61473145 45.98168945 84.71118164 C46.09741749 105.49748 45.84078741 126.2307621 45 147 C43.02 146.67 41.04 146.34 39 146 C39 146.66 39 147.32 39 148 C37.68 147.67 36.36 147.34 35 147 C35.33 145.68 35.66 144.36 36 143 C34.68 143.33 33.36 143.66 32 144 C31.67 142.68 31.34 141.36 31 140 C30.67 141.32 30.34 142.64 30 144 C29.67 143.01 29.34 142.02 29 141 C28.01 141 27.02 141 26 141 C26 142.65 26 144.3 26 146 C27.32 145.67 28.64 145.34 30 145 C31.06775224 146.96466413 32.06553465 148.96855359 33 151 C32.67 151.66 32.34 152.32 32 153 C31.34 153 30.68 153 30 153 C30 153.66 30 154.32 30 155 C30.66 155 31.32 155 32 155 C32 155.66 32 156.32 32 157 C28.94736336 157.98120464 27.05263664 157.98120464 24 157 C23.67 157.66 23.34 158.32 23 159 C22.01 159.33 21.02 159.66 20 160 C19.80002296 146.75287246 19.61627571 133.50562972 19.45341206 120.25799084 C19.37727935 114.10698865 19.29549663 107.95616848 19.20092773 101.80541992 C19.10991832 95.87279562 19.03358549 89.94014945 18.96755028 84.00719643 C18.93971743 81.7404504 18.90654077 79.47376365 18.86800575 77.2071743 C18.8150502 74.03939119 18.78087217 70.87193215 18.7512207 67.70385742 C18.73108414 66.76086792 18.71094757 65.81787842 18.69020081 64.84631348 C18.68591064 63.98394577 18.68162048 63.12157806 18.67720032 62.233078 C18.66706059 61.48366031 18.65692087 60.73424261 18.64647388 59.96211529 C19.09849408 57.45334523 20.15865767 56.6988028 22 55 C22.33 54.01 22.66 53.02 23 52 C23.99 51.505 23.99 51.505 25 51 C24.34 50.34 23.68 49.68 23 49 C23.33 48.01 23.66 47.02 24 46 C21.69 46.66 19.38 47.32 17 48 C17.33 49.65 17.66 51.3 18 53 C15.36282304 51.68141152 15.25368729 50.52106941 14.1875 47.8125 C12.89653909 44.76332739 11.65304163 42.3374544 9.4375 39.875 C5.69261908 35.45796096 3.8632323 30.69733318 3 25 C2.34 25 1.68 25 1 25 C1.33 24.01 1.66 23.02 2 22 C1.01 21.67 0.02 21.34 -1 21 C-1 19.68 -1 18.36 -1 17 C-2.98 17.33 -4.96 17.66 -7 18 C-7 16.35 -7 14.7 -7 13 C-6.01 13 -5.02 13 -4 13 C-4.20625 12.46375 -4.4125 11.9275 -4.625 11.375 C-5.14399992 8.08800051 -4.29128487 6.03451945 -3 3 C-2.01 2.01 -1.02 1.02 0 0 Z M28 136 C27.67 137.32 27.34 138.64 27 140 C28.98 139.34 30.96 138.68 33 138 C33 137.34 33 136.68 33 136 C31.35 136 29.7 136 28 136 Z " fill="#111212" transform="translate(672,178)"/>
<path d="M0 0 C0.99 0.99 1.98 1.98 3 3 C2.67 3.99 2.34 4.98 2 6 C1.34 5.01 0.68 4.02 0 3 C-0.66 4.32 -1.32 5.64 -2 7 C-2.66 7 -3.32 7 -4 7 C-3.34 7.33 -2.68 7.66 -2 8 C-2 8.66 -2 9.32 -2 10 C-2.66 10 -3.32 10 -4 10 C-3.67 10.99 -3.34 11.98 -3 13 C-3.66 13.33 -4.32 13.66 -5 14 C-5.33 13.67 -5.66 13.34 -6 13 C-5.34 13.66 -4.68 14.32 -4 15 C-3.34 15 -2.68 15 -2 15 C-1.67 14.01 -1.34 13.02 -1 12 C-0.67 11.01 -0.34 10.02 0 9 C2.31 9.33 4.62 9.66 7 10 C7 11.65 7 13.3 7 15 C7.33 14.34 7.66 13.68 8 13 C8.66 13 9.32 13 10 13 C13 19.625 13 19.625 13 23 C15.9719385 21.87548273 18.33440687 20.77706209 21 19 C15.78860164 30.33233324 2.34015761 37.50520114 -8.8125 41.9375 C-18.05171245 45.34270512 -26.54685324 46.2911149 -36.3575592 46.24050903 C-38.18831652 46.24307231 -38.18831652 46.24307231 -40.05605882 46.24568737 C-43.42208007 46.24840048 -46.7878659 46.24219424 -50.15385854 46.23213124 C-53.79177094 46.2234604 -57.42967661 46.22641947 -61.06759644 46.22793579 C-67.36333484 46.22898235 -73.65903165 46.22272974 -79.9547596 46.21146011 C-89.05721766 46.19517696 -98.15965569 46.18999423 -107.26212674 46.18748413 C-122.03177752 46.18311144 -136.80140616 46.16981391 -151.57104492 46.15087891 C-165.9147938 46.13250907 -180.25853665 46.11835797 -194.60229492 46.10986328 C-195.4870681 46.10933783 -196.37184127 46.10881239 -197.28342576 46.10827102 C-201.72225917 46.10566086 -206.16109263 46.10313347 -210.59992611 46.10064721 C-247.39996637 46.07992798 -284.19998146 46.04471406 -321 46 C-321.33 45.34 -321.66 44.68 -322 44 C-321.29431413 44.00092179 -320.58862825 44.00184359 -319.86155796 44.00279331 C-296.59521136 44.0326435 -273.328863 44.05154595 -250.0625 44.0625 C-248.71888838 44.06315145 -248.71888838 44.06315145 -247.34813309 44.06381607 C-194.0633104 44.088946 -140.78298314 43.95417419 -87.5 43.5 C-86.79726786 43.49402628 -86.09453572 43.48805257 -85.37050867 43.48189783 C-67.91355815 43.33327128 -50.45672216 43.17345732 -33 43 C-33.33 41.9275 -33.66 40.855 -34 39.75 C-35 36 -35 36 -35 32 C-36.42621684 29.28873616 -36.42621684 29.28873616 -38 27 C-38.66 27.66 -39.32 28.32 -40 29 C-42 26 -42 26 -41.625 23.3125 C-41.41875 22.549375 -41.2125 21.78625 -41 21 C-39.02 20.505 -39.02 20.505 -37 20 C-36.896875 20.598125 -36.79375 21.19625 -36.6875 21.8125 C-35.91123545 24.28243264 -34.92911079 25.32251235 -33 27 C-32.01 25.35 -31.02 23.7 -30 22 C-29.67 22.66 -29.34 23.32 -29 24 C-28.67 23.67 -28.34 23.34 -28 23 C-28.40929986 20.94603274 -28.40929986 20.94603274 -29 19 C-29.61846023 19.00075944 -30.23692046 19.00151888 -30.8741219 19.00230134 C-67.50779 19.04703204 -104.14145407 19.08136024 -140.77514388 19.10213066 C-145.17122227 19.10463215 -149.5673006 19.10722079 -153.96337891 19.10986328 C-155.27618024 19.11065021 -155.27618024 19.11065021 -156.6155028 19.11145304 C-170.79713491 19.12016187 -184.97875085 19.13593447 -199.16037336 19.15430559 C-213.70591128 19.17299135 -228.25144072 19.18411392 -242.79699016 19.18817699 C-251.77644613 19.1909248 -260.7558564 19.19961171 -269.73529831 19.21583293 C-275.88811842 19.22638348 -282.04091481 19.22960501 -288.19374332 19.22700275 C-291.74658772 19.22571845 -295.29935212 19.22772338 -298.85218239 19.23841095 C-302.7000078 19.2499017 -306.5477281 19.24598898 -310.39556885 19.24050903 C-312.08816357 19.24924756 -312.08816357 19.24924756 -313.81495214 19.25816262 C-315.35785078 19.25218947 -315.35785078 19.25218947 -316.9319191 19.24609566 C-317.82046467 19.2468551 -318.70901024 19.24761454 -319.62448144 19.24839699 C-322.16939879 18.98228675 -323.80576624 18.28352341 -326 17 C-325.37264116 16.99978263 -324.74528231 16.99956526 -324.0989126 16.99934131 C-286.88002059 16.98581248 -249.66124013 16.94626787 -212.4424158 16.87314438 C-207.96909786 16.86437809 -203.49577954 16.8558282 -199.02246094 16.84741211 C-197.68667873 16.84489352 -197.68667873 16.84489352 -196.32391103 16.84232404 C-181.92270884 16.81568634 -167.52154645 16.80656128 -153.12032215 16.80395857 C-138.33285678 16.80089434 -123.5455061 16.77889344 -108.75809252 16.73947543 C-99.64042534 16.71576292 -90.52298744 16.70665357 -81.40529372 16.71648689 C-75.14485876 16.72182078 -68.88462842 16.70868742 -62.62425171 16.6813371 C-59.01739428 16.66611532 -55.41099507 16.65874317 -51.80412483 16.67340279 C-31.46348765 16.74836881 -16.42126392 16.21387132 -1.23046875 1.2578125 C-0.82441406 0.84273437 -0.41835938 0.42765625 0 0 Z " fill="#090A0A" transform="translate(680,536)"/>
<path d="M0 0 C7.62300691 7.82903412 8.57354123 16.14042078 8.55908203 26.51489258 C8.43074238 35.23759366 6.93072531 41.44536303 0.859375 47.9375 C-4.9399539 53.32677534 -11.02289798 53.79833506 -18.6484375 53.71484375 C-23.32068207 53.1923691 -26.20339121 51.43820974 -29.6875 48.375 C-30.25339844 47.87871094 -30.81929688 47.38242187 -31.40234375 46.87109375 C-37.48356744 40.70065895 -38.8033362 32.71372637 -39.0625 24.3125 C-38.78187947 14.4780258 -36.0112882 6.51079741 -28.8125 -0.375 C-19.5266631 -7.06080257 -9.36594732 -5.66313094 0 0 Z " fill="#FCFCFC" transform="translate(308.6875,712.625)"/>
<path d="M0 0 C5.45343382 3.09854195 7.73615015 8.34908248 10 14 C12.42447107 23.11845095 12.31669698 34.40798126 8.1875 42.953125 C4.45773102 49.3820689 0.25019001 52.98793176 -7 55 C-13.93434616 56.08317524 -19.64681655 55.12553965 -25.76953125 51.6796875 C-31.02401075 47.72272396 -34.51178625 41.82638855 -35.75 35.3515625 C-36.95997499 23.97023523 -36.46070154 13.46069256 -29.3125 4.0625 C-20.97026652 -4.67898395 -10.42452849 -4.58199045 0 0 Z " fill="#FCFCFC" transform="translate(413,711)"/>
<path d="M0 0 C6.92519931 5.75454444 10.40346234 13.37356528 11.34375 22.2421875 C11.61195754 31.7412045 10.12624231 40.47347373 4 48 C-1.029315 52.81064913 -5.33013307 54.99799495 -12.25 55.375 C-18.42442924 55.18758056 -24.26758991 53.5429783 -28.859375 49.26953125 C-36.35995983 39.96806343 -37.01947094 29.50380277 -36 18 C-34.41869964 10.83708586 -30.68756578 4.66873018 -25 0 C-17.16734231 -4.18399161 -7.74268727 -4.59285657 0 0 Z " fill="#FBFBFB" transform="translate(878,711)"/>
<path d="M0 0 C18.15 0 36.3 0 55 0 C55 7.59 55 15.18 55 23 C36.85 23 18.7 23 0 23 C0 15.41 0 7.82 0 0 Z " fill="#0E0F0F" transform="translate(623,721)"/>
<path d="M0 0 C0.33 0 0.66 0 1 0 C1.00238835 0.7454476 1.00477671 1.4908952 1.00723743 2.25893211 C1.06631142 20.37716006 1.14181236 38.49525089 1.23571491 56.61333275 C1.28072676 65.37502212 1.32012884 74.13667036 1.34643555 82.8984375 C1.36937215 90.53305061 1.40272117 98.16753411 1.44870156 105.80204451 C1.47269265 109.84642644 1.49138269 113.89067955 1.49761391 117.93513107 C1.50363836 121.73876306 1.52354135 125.54206518 1.55427551 129.34557533 C1.56309838 130.74441174 1.56676959 132.14329119 1.56500816 133.54215431 C1.56336688 135.44638394 1.58174835 137.35059998 1.60127258 139.25473022 C1.60588155 140.3221665 1.61049051 141.38960278 1.61523914 142.4893856 C1.74221023 143.31788836 1.86918131 144.14639111 2 145 C2.99 145.66 3.98 146.32 5 147 C5.6875 149.125 5.6875 149.125 6 151 C6.66 150.67 7.32 150.34 8 150 C8 146.46528079 7.76402678 143.43812051 7 140 C6.34 139.67 5.68 139.34 5 139 C6.0725 138.87625 7.145 138.7525 8.25 138.625 C11.84683029 138.2144376 11.84683029 138.2144376 14.25 136.875 C15.11625 136.441875 15.11625 136.441875 16 136 C16.99 136.33 17.98 136.66 19 137 C18.67 137.66 18.34 138.32 18 139 C18.27942455 140.67654729 18.60828247 142.34608154 19 144 C19.928125 143.01 19.928125 143.01 20.875 142 C23 140 23 140 25 140 C26.01315301 136.96054098 26.13674271 134.88540083 26.15821838 131.70393372 C26.1680072 130.6059697 26.17779602 129.50800568 26.18788147 128.37677002 C26.19363693 127.17195984 26.1993924 125.96714966 26.20532227 124.72583008 C26.21522186 123.45742783 26.22512146 122.18902557 26.23532104 120.88218689 C26.2623634 117.40315682 26.28337657 113.92411319 26.30332303 110.44503617 C26.32518671 106.80949828 26.35257353 103.17400214 26.37937927 99.53849792 C26.42930099 92.65375663 26.47424175 85.76899216 26.51740164 78.88420552 C26.56677846 71.04628899 26.62169494 63.20841436 26.67708123 55.37053835 C26.79089328 39.24706419 26.89773402 23.12355162 27 7 C27.33 7 27.66 7 28 7 C28 98.08 28 189.16 28 283 C27.67 283 27.34 283 27 283 C27 239.11 27 195.22 27 150 C26.34 150 25.68 150 25 150 C24.505 149.01 24.505 149.01 24 148 C23.34 148.33 22.68 148.66 22 149 C21.01 148.67 20.02 148.34 19 148 C19 147.34 19 146.68 19 146 C18.34 146.33 17.68 146.66 17 147 C16.04932701 150.28414305 15.89897803 151.69693408 17 155 C15.9171875 155.61875 15.9171875 155.61875 14.8125 156.25 C12.02030138 157.98736803 9.52987415 159.90381857 7 162 C6.67 160.68 6.34 159.36 6 158 C4.68 157.67 3.36 157.34 2 157 C2 201.55 2 246.1 2 292 C-2.03620552 285.94569172 -1.14158488 278.65734925 -1.12698364 271.62408447 C-1.12854363 270.47289084 -1.13010362 269.32169721 -1.13171089 268.13561893 C-1.1350053 264.94918098 -1.1338251 261.76278124 -1.13072467 258.57634425 C-1.12846048 255.13670446 -1.13195519 251.6970698 -1.13470459 248.25743103 C-1.13914978 241.52381829 -1.13819154 234.7902167 -1.13529195 228.05660352 C-1.13303376 222.58622464 -1.1327272 217.11584888 -1.13381577 211.64546967 C-1.13404561 210.47774048 -1.13404561 210.47774048 -1.13428011 209.28642081 C-1.13459983 207.70500447 -1.13492404 206.12358814 -1.1352527 204.54217181 C-1.13810363 189.71690948 -1.13482613 174.89165334 -1.12945233 160.06639203 C-1.12498112 147.33673873 -1.12576358 134.60709455 -1.13037109 121.87744141 C-1.13571761 107.09909787 -1.13783269 92.32075975 -1.13475883 77.54241538 C-1.13444027 75.96803268 -1.1341259 74.39364998 -1.13381577 72.81926727 C-1.13366149 72.04460364 -1.13350721 71.26994 -1.13334826 70.47180171 C-1.1324836 65.00390744 -1.13394482 59.5360166 -1.13629532 54.06812286 C-1.13909421 47.41081494 -1.13835301 40.75351881 -1.13301457 34.09621224 C-1.13037932 30.69751895 -1.12936959 27.29884536 -1.13266373 23.90015221 C-1.13537525 20.22274181 -1.13199408 16.54538772 -1.12698364 12.86798096 C-1.13032973 11.24282385 -1.13032973 11.24282385 -1.13374341 9.58483529 C-1.13113566 8.60571923 -1.12852791 7.62660317 -1.12584114 6.61781693 C-1.12559761 5.34341779 -1.12559761 5.34341779 -1.12534916 4.04327321 C-1 2 -1 2 0 0 Z M20 149 C22 150 22 150 22 150 Z " fill="#0A0A0A" transform="translate(290,232)"/>
<path d="M0 0 C0.99 1.32 1.98 2.64 3 4 C2 6 2 6 1 7 C1.99 8.485 1.99 8.485 3 10 C2.34 10.66 1.68 11.32 1 12 C1.66 12.33 2.32 12.66 3 13 C3.99 12.67 4.98 12.34 6 12 C6 12.66 6 13.32 6 14 C8.97 14.495 8.97 14.495 12 15 C12 15.66 12 16.32 12 17 C10.68 17 9.36 17 8 17 C7.34 17.99 6.68 18.98 6 20 C5.67 20.33 5.34 20.66 5 21 C6.65 21 8.3 21 10 21 C10.33 20.01 10.66 19.02 11 18 C12.875 18.1875 12.875 18.1875 15 19 C16.375 21.3125 16.375 21.3125 17 24 C16.07113748 26.70918234 15.03635836 27.96364164 13 30 C12.505 31.485 12.505 31.485 12 33 C10 33 8 33 6 33 C5.67 33.66 5.34 34.32 5 35 C4.34 35 3.68 35 3 35 C3 35.66 3 36.32 3 37 C1.68 37.66 0.36 38.32 -1 39 C-1.33 64.08 -1.66 89.16 -2 115 C3.92334785 114.73116177 3.92334785 114.73116177 5.875 111.4375 C6.24625 110.633125 6.6175 109.82875 7 109 C7.66 109.33 8.32 109.66 9 110 C9.309375 108.865625 9.61875 107.73125 9.9375 106.5625 C11 103 11 103 12 102 C11.01 101.01 10.02 100.02 9 99 C10.875 97.9375 10.875 97.9375 13 97 C13.99 97.495 13.99 97.495 15 98 C15 98.66 15 99.32 15 100 C15.99 100.495 15.99 100.495 17 101 C17 102.66666667 17 104.33333333 17 106 C17.99 106 18.98 106 20 106 C20.33 84.22 20.66 62.44 21 40 C21.33 40 21.66 40 22 40 C22 65.41 22 90.82 22 117 C13.42 117 4.84 117 -4 117 C-4 91.59 -4 66.18 -4 40 C-9.28 40 -14.56 40 -20 40 C-20 33.07 -20 26.14 -20 19 C-15.71 19 -11.42 19 -7 19 C-7 19.33 -7 19.66 -7 20 C-10.96 20 -14.92 20 -19 20 C-19 22.31 -19 24.62 -19 27 C-17.68 27.33 -16.36 27.66 -15 28 C-15.99 29.32 -16.98 30.64 -18 32 C-17.34 32 -16.68 32 -16 32 C-16 31.34 -16 30.68 -16 30 C-15.34 30.33 -14.68 30.66 -14 31 C-13.01 31.33 -12.02 31.66 -11 32 C-10.67 30.35 -10.34 28.7 -10 27 C-9.34 27 -8.68 27 -8 27 C-8 26.34 -8 25.68 -8 25 C-8.7425 25.185625 -9.485 25.37125 -10.25 25.5625 C-12.94990963 25.99203108 -14.44631077 25.85122974 -17 25 C-16.67 24.01 -16.34 23.02 -16 22 C-15.01 22.33 -14.02 22.66 -13 23 C-13 22.34 -13 21.68 -13 21 C-9.7 20.67 -6.4 20.34 -3 20 C-2.87625 18.741875 -2.7525 17.48375 -2.625 16.1875 C-2.02638195 10.73920821 -1.03573574 5.37979246 0 0 Z " fill="#101111" transform="translate(473,669)"/>
<path d="M0 0 C0.33 0 0.66 0 1 0 C1.02288844 34.65943276 1.04050947 69.3188638 1.05106533 103.97830248 C1.05231604 108.07008904 1.05361036 112.16187558 1.05493164 116.25366211 C1.05519395 117.06826377 1.05545626 117.88286543 1.05572652 118.72215199 C1.06007792 131.91237258 1.06796257 145.10258881 1.0771528 158.29280681 C1.08650404 171.82699886 1.09205873 185.36118863 1.09408849 198.89538378 C1.09546066 207.24680792 1.09979471 215.59821974 1.10791647 223.94964009 C1.11320205 229.67637588 1.11480016 235.40310531 1.11350138 241.12984336 C1.11286084 244.43392994 1.11438997 247.73799045 1.11920547 251.0420742 C1.1241734 254.62609425 1.12298676 258.2100614 1.12025452 261.79408264 C1.12462378 263.35684113 1.12462378 263.35684113 1.12908131 264.9511705 C1.1185487 270.05549659 1.07927986 274.9973781 0 280 C-0.66 280.33 -1.32 280.66 -2 281 C-1.98525131 280.33395752 -1.97050262 279.66791504 -1.95530701 278.98168945 C-1.80142336 271.97232095 -1.65702087 264.96280016 -1.51782227 257.953125 C-1.46485513 255.3463049 -1.40956915 252.73953075 -1.35180664 250.1328125 C-1.26861383 246.35947583 -1.1941039 242.58604589 -1.12109375 238.8125 C-1.08054115 237.09897339 -1.08054115 237.09897339 -1.03916931 235.35083008 C-0.93267533 229.41598542 -1.06687251 223.59127493 -1.51977539 217.671875 C-2.24311452 207.76336015 -1.89454159 197.88013166 -1.6479187 187.95724487 C-1.49533368 181.66985885 -1.37216238 175.38193581 -1.2578125 169.09375 C-1.24553305 168.41946898 -1.23325359 167.74518795 -1.22060204 167.05047417 C-0.9035234 149.18024134 -0.91721092 131.30997419 -0.9375 113.4375 C-0.93906693 111.77283734 -0.94061314 110.10817466 -0.94213867 108.44351196 C-0.95291384 97.49012158 -0.97269171 86.53675422 -0.99479675 75.58338165 C-1.01908943 63.52221059 -1.04172262 51.46104639 -1.05341816 39.39985561 C-1.05837435 34.59225472 -1.06818119 29.78469647 -1.08184814 24.97711277 C-1.08926545 22.03041022 -1.09261313 19.08371357 -1.0948143 16.13700294 C-1.09759348 14.11596057 -1.10539461 12.09492709 -1.11331177 10.07389832 C-1.11338226 8.8843605 -1.11345276 7.69482269 -1.11352539 6.46923828 C-1.115746 5.43066681 -1.11796661 4.39209534 -1.12025452 3.322052 C-1 1 -1 1 0 0 Z " fill="#030404" transform="translate(718,243)"/>
<path d="M0 0 C4.29 0 8.58 0 13 0 C13 0.33 13 0.66 13 1 C9.04 1 5.08 1 1 1 C1 7.27 1 13.54 1 20 C6.28 20 11.56 20 17 20 C18.49282393 22.98564786 18.11916977 25.68983718 18.11352539 29.02001953 C18.11367142 29.74207581 18.11381744 30.46413208 18.1139679 31.20806885 C18.11327007 33.59968041 18.10548375 35.99121451 18.09765625 38.3828125 C18.09579161 40.03905189 18.09436792 41.69529184 18.09336853 43.35153198 C18.08954699 47.71467608 18.07971978 52.077787 18.06866455 56.44091797 C18.05844264 60.89159699 18.05386924 65.34228137 18.04882812 69.79296875 C18.0380972 78.52866108 18.02102512 87.26432641 18 96 C20.93691617 95.69821771 20.93691617 95.69821771 24 95 C25.91744593 92.55690423 25.91744593 92.55690423 27 90 C27.66 90.33 28.32 90.66 29 91 C29.309375 89.865625 29.61875 88.73125 29.9375 87.5625 C31 84 31 84 32 83 C31.01 82.01 30.02 81.02 29 80 C30.875 78.9375 30.875 78.9375 33 78 C33.99 78.495 33.99 78.495 35 79 C35 79.66 35 80.32 35 81 C35.99 81.495 35.99 81.495 37 82 C37 83.66666667 37 85.33333333 37 87 C37.99 87 38.98 87 40 87 C40.33 65.22 40.66 43.44 41 21 C41.33 21 41.66 21 42 21 C42 46.41 42 71.82 42 98 C33.42 98 24.84 98 16 98 C16 72.59 16 47.18 16 21 C10.72 21 5.44 21 0 21 C0 14.07 0 7.14 0 0 Z " fill="#060707" transform="translate(453,688)"/>
<path d="M0 0 C8.91 0 17.82 0 27 0 C27 1.65 27 3.3 27 5 C23.3558226 7.4294516 21.28758728 7.16179575 17 7 C16.67 8.98 16.34 10.96 16 13 C15.34 13 14.68 13 14 13 C13.67 13.99 13.34 14.98 13 16 C12.2265625 17.0209375 12.2265625 17.0209375 11.4375 18.0625 C9.80138436 19.86561061 9.80138436 19.86561061 10 22 C8.66666667 23.33333333 7.33333333 24.66666667 6 26 C6 24.68 6 23.36 6 22 C4.68 22 3.36 22 2 22 C1.34 22.66 0.68 23.32 0 24 C0 16.08 0 8.16 0 0 Z " fill="#121313" transform="translate(692,653)"/>
<path d="M0 0 C19.47 0 38.94 0 59 0 C59 6.27 59 12.54 59 19 C58.67 19 58.34 19 58 19 C57.67 13.72 57.34 8.44 57 3 C55.68 3.99 54.36 4.98 53 6 C52.01 5.01 51.02 4.02 50 3 C48.94729537 5.63106761 48.94729537 5.63106761 49 7 C49 7.66 49 8.32 49 9 C48.34 9 47.68 9 47 9 C46.67 10.98 46.34 12.96 46 15 C45.505 14.01 45.505 14.01 45 13 C43.02 13.99 43.02 13.99 41 15 C40.505 11.535 40.505 11.535 40 8 C38.68 8.33 37.36 8.66 36 9 C36 7.35 36 5.7 36 4 C36.66 3.67 37.32 3.34 38 3 C36.87464844 3.10828125 36.87464844 3.10828125 35.7265625 3.21875 C29.12711373 3.81718868 22.62542432 4.13192217 16 4 C16 4.66 16 5.32 16 6 C15.34 6 14.68 6 14 6 C14 5.01 14 4.02 14 3 C9.71 2.67 5.42 2.34 1 2 C1 7.94 1 13.88 1 20 C1.66 20.33 2.32 20.66 3 21 C2.01 21.33 1.02 21.66 0 22 C0 14.74 0 7.48 0 0 Z " fill="#1B1C1B" transform="translate(176,714)"/>
<path d="M0 0 C4.95 0 9.9 0 15 0 C15 7.26 15 14.52 15 22 C5.76 22 -3.48 22 -13 22 C-12.34 21.67 -11.68 21.34 -11 21 C-11 20.34 -11 19.68 -11 19 C-7.37 19.66 -3.74 20.32 0 21 C0 19.68 0 18.36 0 17 C-1.65 16.67 -3.3 16.34 -5 16 C-2.64046906 13.64046906 -1.22104383 13.50858587 2 13 C1.01 12.67 0.02 12.34 -1 12 C-0.34 11.67 0.32 11.34 1 11 C1.68931344 8.65092125 1.68931344 8.65092125 2.125 5.9375 C2.37636719 4.55884766 2.37636719 4.55884766 2.6328125 3.15234375 C2.75398437 2.44207031 2.87515625 1.73179687 3 1 C2.01 0.67 1.02 0.34 0 0 Z " fill="#151616" transform="translate(663,721)"/>
<path d="M0 0 C7.26 0 14.52 0 22 0 C22 6.93 22 13.86 22 21 C15.07 21 8.14 21 1 21 C1 46.41 1 71.82 1 98 C0.67 98 0.34 98 0 98 C0 72.59 0 47.18 0 21 C-0.66 21 -1.32 21 -2 21 C-2 23.31 -2 25.62 -2 28 C-2.66 27.67 -3.32 27.34 -4 27 C-4.73075648 24.6859378 -5.40138258 22.35171131 -6 20 C-5.34 20 -4.68 20 -4 20 C-4.33 19.34 -4.66 18.68 -5 18 C-5.99 18.66 -6.98 19.32 -8 20 C-8.99 19.67 -9.98 19.34 -11 19 C-11 18.34 -11 17.68 -11 17 C-11.66 16.67 -12.32 16.34 -13 16 C-11.02 15.34 -9.04 14.68 -7 14 C-7 13.01 -7 12.02 -7 11 C-6.34 10.67 -5.68 10.34 -5 10 C-4.59270772 7.67843403 -4.25561323 5.3431213 -4 3 C-2.68 3.99 -1.36 4.98 0 6 C-0.33 6.66 -0.66 7.32 -1 8 C-0.34 8.33 0.32 8.66 1 9 C1.33 8.01 1.66 7.02 2 6 C2.99 6 3.98 6 5 6 C5.33 6.99 5.66 7.98 6 9 C5.01 9.66 4.02 10.32 3 11 C3.66 11.33 4.32 11.66 5 12 C5 12.66 5 13.32 5 14 C4.34 14 3.68 14 3 14 C3.33 15.65 3.66 17.3 4 19 C9.28 19 14.56 19 20 19 C20.33 13.06 20.66 7.12 21 1 C14.07 1 7.14 1 0 1 C0 0.67 0 0.34 0 0 Z " fill="#202121" transform="translate(495,688)"/>
<path d="M0 0 C4.95 0 9.9 0 15 0 C15 0.33 15 0.66 15 1 C12.69 1.66 10.38 2.32 8 3 C8.33 3.66 8.66 4.32 9 5 C9.99 5 10.98 5 12 5 C12.33 5.66 12.66 6.32 13 7 C13.99 7 14.98 7 16 7 C19 7 19 7 22 9 C23.23956095 11.76517442 23.05379868 12.84219054 22.0625 15.75 C21.5365625 16.86375 21.5365625 16.86375 21 18 C22.98 18 24.96 18 27 18 C23.23791451 21.76208549 17.63199309 22.10859338 12.5 22.1953125 C10.99987362 22.18226792 9.49980248 22.15879104 8 22.125 C6.83791016 22.11146484 6.83791016 22.11146484 5.65234375 22.09765625 C3.76809157 22.07439388 1.88400168 22.0385364 0 22 C0 21.67 0 21.34 0 21 C3.96 21 7.92 21 12 21 C12.33 19.68 12.66 18.36 13 17 C13.66 17.33 14.32 17.66 15 18 C15 18.66 15 19.32 15 20 C15.66 19.67 16.32 19.34 17 19 C16.505 16.525 16.505 16.525 16 14 C15.34 14 14.68 14 14 14 C14 12.68 14 11.36 14 10 C12.68 10 11.36 10 10 10 C10.33 11.65 10.66 13.3 11 15 C8.525 14.01 8.525 14.01 6 13 C6.04882812 10.02148438 6.04882812 10.02148438 6.09765625 7.04296875 C6.08263217 4.79694539 6.08263217 4.79694539 5 2 C4.01 3.485 4.01 3.485 3 5 C3.33 5.99 3.66 6.98 4 8 C2.68 8 1.36 8 0 8 C0 7.01 0 6.02 0 5 C-0.66 4.67 -1.32 4.34 -2 4 C-1.34 2.68 -0.68 1.36 0 0 Z M11 12 C13 13 13 13 13 13 Z " fill="#0C0D0D" transform="translate(393,766)"/>
<path d="M0 0 C0.99 0 1.98 0 3 0 C2.67 1.65 2.34 3.3 2 5 C3.11375 4.835 4.2275 4.67 5.375 4.5 C9 4 9 4 11 4 C11 4.99 11 5.98 11 7 C11.66 7 12.32 7 13 7 C12.6754915 10.00170365 12.3182426 11.63461035 10.3125 13.9375 C8 15 8 15 2 13 C0.515 19.435 0.515 19.435 -1 26 C-1.33 26 -1.66 26 -2 26 C-2.05449228 23.16640156 -2.09390733 20.33387515 -2.125 17.5 C-2.14175781 16.70851563 -2.15851563 15.91703125 -2.17578125 15.1015625 C-2.21989226 9.72001921 -1.50594058 5.17000073 0 0 Z " fill="#171818" transform="translate(352,720)"/>
<path d="M0 0 C5.06623768 4.23816537 9.80038069 8.67408963 14.4375 13.375 C15.07365234 14.01566406 15.70980469 14.65632813 16.36523438 15.31640625 C17.91250332 16.87530879 19.45736492 18.43651416 21 20 C22.65 19.34 24.3 18.68 26 18 C25.34 19.32 24.68 20.64 24 22 C20 22 20 22 17.640625 20.03125 C16.85171875 19.1959375 16.0628125 18.360625 15.25 17.5 C14.45078125 16.6646875 13.6515625 15.829375 12.828125 14.96875 C12.22484375 14.3190625 11.6215625 13.669375 11 13 C10.67 13.66 10.34 14.32 10 15 C9.34 15 8.68 15 8 15 C8 14.34 8 13.68 8 13 C7.071875 13.515625 6.14375 14.03125 5.1875 14.5625 C2 16 2 16 -1 15 C-0.01 14.01 0.98 13.02 2 12 C1.34 9.69 0.68 7.38 0 5 C0.66 4.67 1.32 4.34 2 4 C1.34 2.68 0.68 1.36 0 0 Z " fill="#090A0A" transform="translate(445,396)"/>
<path d="M0 0 C0.33 0.66 0.66 1.32 1 2 C2.14214966 1.99214478 2.14214966 1.99214478 3.30737305 1.98413086 C6.76740692 1.96330475 10.22742759 1.95032187 13.6875 1.9375 C14.88568359 1.92912109 16.08386719 1.92074219 17.31835938 1.91210938 C19.05375977 1.90727539 19.05375977 1.90727539 20.82421875 1.90234375 C21.88729248 1.89710693 22.95036621 1.89187012 24.0456543 1.88647461 C26.8134509 1.99283156 29.30792897 2.37105212 32 3 C32 3.33 32 3.66 32 4 C22.43 4 12.86 4 3 4 C2.67 7.3 2.34 10.6 2 14 C0.35 14 -1.3 14 -3 14 C-3 5 -3 5 -2 2 C-1.34 2 -0.68 2 0 2 C0 1.34 0 0.68 0 0 Z " fill="#090909" transform="translate(716,672)"/>
<path d="M0 0 C0.99 0.66 1.98 1.32 3 2 C2.34 2 1.68 2 1 2 C0.896875 2.598125 0.79375 3.19625 0.6875 3.8125 C-0.10127968 6.32225354 -1.17017086 7.17017086 -3 9 C-3.71447643 11.10332891 -3.71447643 11.10332891 -4 13 C-4.66 13 -5.32 13 -6 13 C-6 12.01 -6 11.02 -6 10 C-6.66 9.67 -7.32 9.34 -8 9 C-7.34 9 -6.68 9 -6 9 C-6 8.34 -6 7.68 -6 7 C-12.17252553 12.31429814 -12.17252553 12.31429814 -18 18 C-18.66 17.67 -19.32 17.34 -20 17 C-17.98854552 14.90687744 -15.966666 12.82583904 -13.9375 10.75 C-13.37611328 10.16347656 -12.81472656 9.57695312 -12.23632812 8.97265625 C-8.44840799 5.11980034 -4.80766285 2.47426215 0 0 Z M-7 13 C-6.34 14.32 -5.68 15.64 -5 17 C-6.32 17.33 -7.64 17.66 -9 18 C-9.33 17.01 -9.66 16.02 -10 15 C-9.01 14.34 -8.02 13.68 -7 13 Z " fill="#0C0C0C" transform="translate(550,333)"/>
<path d="M0 0 C4 4.75 4 4.75 4 7 C4.31478446 8.33783393 4.64587656 9.67203709 5 11 C4.34 11 3.68 11 3 11 C3 11.66 3 12.32 3 13 C2.34 13 1.68 13 1 13 C1 12.34 1 11.68 1 11 C0.34 11 -0.32 11 -1 11 C-1 17.27 -1 23.54 -1 30 C-4.91239753 24.13140371 -3.57761822 15.12514828 -2.32421875 8.34375 C-1.6187291 5.5351656 -0.86452741 2.76340011 0 0 Z " fill="#191A1A" transform="translate(246,717)"/>
<path d="M0 0 C10.79275442 0.47967797 18.65128987 7.07997806 25.90625 14.53515625 C27.94261209 16.93244073 29.59501199 19.1852774 31 22 C30.67 22.66 30.34 23.32 30 24 C29.57589844 23.41992188 29.15179688 22.83984375 28.71484375 22.2421875 C24.87194201 17.12394914 21.00753555 12.98558952 16 9 C16 9.66 16 10.32 16 11 C15.360625 11.12375 14.72125 11.2475 14.0625 11.375 C13.381875 11.58125 12.70125 11.7875 12 12 C11.67 12.66 11.34 13.32 11 14 C11 12.68 11 11.36 11 10 C12.32 10 13.64 10 15 10 C15 9.34 15 8.68 15 8 C14.34 7.67 13.68 7.34 13 7 C12.2575 6.484375 11.515 5.96875 10.75 5.4375 C7.58090634 3.78092831 5.52492909 3.75407471 2 4 C2.33 3.34 2.66 2.68 3 2 C2.01 1.34 1.02 0.68 0 0 Z " fill="#080909" transform="translate(413,688)"/>
<path d="M0 0 C2.29013653 3.4352048 2.17842973 4.985331 2 9 C2.66 9.33 3.32 9.66 4 10 C3.01 10 2.02 10 1 10 C1 10.66 1 11.32 1 12 C1.66 12.33 2.32 12.66 3 13 C2.67 13.66 2.34 14.32 2 15 C1.01 15 0.02 15 -1 15 C-1 22.92 -1 30.84 -1 39 C-1.33 39 -1.66 39 -2 39 C-2.21973845 35.05394392 -2.41600124 31.10743232 -2.59204102 27.15917969 C-2.68548103 25.1680232 -2.79664792 23.17772376 -2.90820312 21.1875 C-3.23747021 13.5175139 -2.88577846 7.16112313 0 0 Z " fill="#181818" transform="translate(293,219)"/>
<path d="M0 0 C4.00517396 1.60373148 6.6771098 4.42113986 9.640625 7.4453125 C10.16767029 7.97518768 10.69471558 8.50506287 11.23773193 9.05099487 C12.91325675 10.73767825 14.58167722 12.43119564 16.25 14.125 C17.38755851 15.27259388 18.52557436 16.41973461 19.6640625 17.56640625 C22.44803465 20.37238137 25.2256576 23.18450464 28 26 C27.34 26.66 26.68 27.32 26 28 C25.01 27.01 24.02 26.02 23 25 C22.34 25.33 21.68 25.66 21 26 C20.67 25.01 20.34 24.02 20 23 C18.05714316 19.40573293 15.90679808 16.67608428 12.98828125 13.828125 C11.85229492 12.70857422 11.85229492 12.70857422 10.69335938 11.56640625 C9.90767578 10.80199219 9.12199219 10.03757812 8.3125 9.25 C6.74397175 7.71570802 5.17744507 6.17936614 3.61328125 4.640625 C2.92016846 3.96547852 2.22705566 3.29033203 1.51293945 2.59472656 C0 1 0 1 0 0 Z M18 26 C18.99 26 19.98 26 21 26 C20 28 20 28 18 29 C18 28.01 18 27.02 18 26 Z " fill="#0A0A0A" transform="translate(404,355)"/>
<path d="M0 0 C0.66 0.33 1.32 0.66 2 1 C1.814375 1.639375 1.62875 2.27875 1.4375 2.9375 C1.293125 3.618125 1.14875 4.29875 1 5 C1.33 5.33 1.66 5.66 2 6 C2.66 5.01 3.32 4.02 4 3 C3.46246904 9.18160604 1.45417612 14.326858 -1 20 C-2 17 -2 17 -2 14 C-2.66 13.34 -3.32 12.68 -4 12 C-4 9 -4 6 -4 3 C-2.68 2.67 -1.36 2.34 0 2 C0 1.34 0 0.68 0 0 Z " fill="#0C0C0D" transform="translate(587,769)"/>
<path d="M0 0 C8.25 0 16.5 0 25 0 C25.33 1.65 25.66 3.3 26 5 C25.34 3.68 24.68 2.36 24 1 C19.05 1 14.1 1 9 1 C8.67 2.65 8.34 4.3 8 6 C8.66 6.33 9.32 6.66 10 7 C9.34 7.66 8.68 8.32 8 9 C7.01 9 6.02 9 5 9 C4.67 7.68 4.34 6.36 4 5 C3.01 5.495 3.01 5.495 2 6 C2.33 4.68 2.66 3.36 3 2 C2.01 1.34 1.02 0.68 0 0 Z " fill="#090A0A" transform="translate(525,688)"/>
<path d="M0 0 C0.33 0 0.66 0 1 0 C1.16808419 2.10405391 1.33441948 4.20824758 1.5 6.3125 C1.5928125 7.48425781 1.685625 8.65601563 1.78125 9.86328125 C2.5467202 20.8395772 2 31.9982892 2 43 C2.66 43.33 3.32 43.66 4 44 C4 44.66 4 45.32 4 46 C3.34 46 2.68 46 2 46 C1.34 47.32 0.68 48.64 0 50 C0 33.5 0 17 0 0 Z " fill="#181919" transform="translate(692,686)"/>
<path d="M0 0 C3 2 3 2 3.73046875 4.3828125 C3.88128906 5.28773438 4.03210938 6.19265625 4.1875 7.125 C4.34605469 8.03507813 4.50460937 8.94515625 4.66796875 9.8828125 C4.77753906 10.58148437 4.88710938 11.28015625 5 12 C2.36 12 -0.28 12 -3 12 C-2.67 10.68 -2.34 9.36 -2 8 C-3.32 8.33 -4.64 8.66 -6 9 C-5.67 7.68 -5.34 6.36 -5 5 C-4.34 5 -3.68 5 -3 5 C-3 5.66 -3 6.32 -3 7 C-2.01 7 -1.02 7 0 7 C0 4.69 0 2.38 0 0 Z " fill="#161717" transform="translate(268,741)"/>
<path d="M0 0 C0.33 0.66 0.66 1.32 1 2 C1.99 2.33 2.98 2.66 4 3 C5.1875 5.0625 5.1875 5.0625 6 7 C4.68 7 3.36 7 2 7 C1.67 7.66 1.34 8.32 1 9 C0.34 9 -0.32 9 -1 9 C-0.649375 9.598125 -0.29875 10.19625 0.0625 10.8125 C1 13 1 13 0 16 C-0.69937202 14.5682384 -1.38412718 13.12932968 -2.0625 11.6875 C-2.44535156 10.88699219 -2.82820312 10.08648438 -3.22265625 9.26171875 C-4 7 -4 7 -3 4 C-2.03126968 2.64377755 -1.03565785 1.30582947 0 0 Z " fill="#0D0D0D" transform="translate(535,704)"/>
<path d="M0 0 C1.98 0.66 3.96 1.32 6 2 C6 2.66 6 3.32 6 4 C6.99 4 7.98 4 9 4 C9.33 3.34 9.66 2.68 10 2 C10.268125 2.969375 10.53625 3.93875 10.8125 4.9375 C11.204375 5.948125 11.59625 6.95875 12 8 C12.99 8.33 13.98 8.66 15 9 C13.68 9 12.36 9 11 9 C10.67 10.32 10.34 11.64 10 13 C7.07938815 10.37144933 5.13935038 7.27588027 3 4 C2.01133494 2.65824027 1.0161846 1.32103998 0 0 Z " fill="#161717" transform="translate(878,711)"/>
<path d="M0 0 C3.74263926 5.61395889 3.65438169 13.37854464 3 20 C1.98828125 22.30078125 1.98828125 22.30078125 1 24 C-1.27141454 18.60539047 -1.20413361 13.73842251 -1 8 C-0.34 8 0.32 8 1 8 C0.67 5.36 0.34 2.72 0 0 Z " fill="#1C1C1C" transform="translate(448,723)"/>
<path d="M0 0 C7.97012293 3.61961915 13.44893089 11.1676016 17 19 C16.67 19.66 16.34 20.32 16 21 C14.68 19.02 13.36 17.04 12 15 C10.68 15.33 9.36 15.66 8 16 C8 15.34 8 14.68 8 14 C7.34 13.34 6.68 12.68 6 12 C6.66 11.67 7.32 11.34 8 11 C6.63629701 8.00779732 5.05091917 5.70973471 2.875 3.25 C2.33617187 2.63640625 1.79734375 2.0228125 1.2421875 1.390625 C0.83226562 0.93171875 0.42234375 0.4728125 0 0 Z " fill="#0A0A0A" transform="translate(783,666)"/>
<path d="M0 0 C0.66 0.33 1.32 0.66 2 1 C2 2.65 2 4.3 2 6 C1.01 6 0.02 6 -1 6 C-0.67257812 6.95003906 -0.34515625 7.90007813 -0.0078125 8.87890625 C1.33003345 13.56136707 1.22058789 18.10295873 1.125 22.9375 C1.11597656 23.81212891 1.10695313 24.68675781 1.09765625 25.58789062 C1.0742957 27.72538064 1.03843247 29.86272786 1 32 C0.67 32 0.34 32 0 32 C-0.03738281 31.01902344 -0.07476563 30.03804687 -0.11328125 29.02734375 C-0.55541356 19.42264834 -1.85762853 10.37792793 -4 1 C-3.34 1 -2.68 1 -2 1 C-1.67 1.66 -1.34 2.32 -1 3 C-0.67 2.01 -0.34 1.02 0 0 Z " fill="#070707" transform="translate(778,697)"/>
<path d="M0 0 C1.32 0.33 2.64 0.66 4 1 C3.67 1.66 3.34 2.32 3 3 C1.35 3 -0.3 3 -2 3 C-2.33 3.66 -2.66 4.32 -3 5 C-5.0625 6.125 -5.0625 6.125 -7 7 C-7 5.68 -7 4.36 -7 3 C-8.98 3 -10.96 3 -13 3 C-13.66 4.32 -14.32 5.64 -15 7 C-15.4125 6.54625 -15.825 6.0925 -16.25 5.625 C-18.19019186 3.67082177 -18.19019186 3.67082177 -22 2 C-14.74 1.67 -7.48 1.34 0 1 C0 0.67 0 0.34 0 0 Z " fill="#191A1A" transform="translate(740,762)"/>
<path d="M0 0 C0.928125 0.2784375 0.928125 0.2784375 1.875 0.5625 C4.04160178 1.23686176 4.04160178 1.23686176 6 0 C6 1.32 6 2.64 6 4 C7.093125 3.505 8.18625 3.01 9.3125 2.5 C13 1 13 1 16 1 C15.34 3.64 14.68 6.28 14 9 C12 7 12 7 11 5 C10.67 5.66 10.34 6.32 10 7 C9.319375 6.71125 8.63875 6.4225 7.9375 6.125 C4.67106907 4.87402645 1.37153877 3.92552045 -2 3 C-1.34 2.01 -0.68 1.02 0 0 Z " fill="#171918" transform="translate(406,706)"/>
<path d="M0 0 C0.721875 0.144375 1.44375 0.28875 2.1875 0.4375 C3.5796875 0.7159375 3.5796875 0.7159375 5 1 C5.763125 1.165 6.52625 1.33 7.3125 1.5 C10.14792033 2.02752006 12.93925571 2.32017819 15.8125 2.5625 C16.78832031 2.64628906 17.76414062 2.73007812 18.76953125 2.81640625 C19.87361328 2.90728516 19.87361328 2.90728516 21 3 C17.54785147 5.30143236 16.76520676 5.13833854 12.8125 4.625 C11.91144531 4.51414062 11.01039063 4.40328125 10.08203125 4.2890625 C9.05142578 4.14597656 9.05142578 4.14597656 8 4 C7.34 5.32 6.68 6.64 6 8 C6 7.34 6 6.68 6 6 C5.01 5.67 4.02 5.34 3 5 C1.3125 3.5625 1.3125 3.5625 0 2 C0 1.34 0 0.68 0 0 Z " fill="#0A0B0B" transform="translate(277,763)"/>
<path d="M0 0 C-0.99 2.64 -1.98 5.28 -3 8 C-5 7 -5 7 -6 4 C-6.99 4.66 -7.98 5.32 -9 6 C-9.66 5.01 -10.32 4.02 -11 3 C-10.67 2.67 -10.34 2.34 -10 2 C-10.66 1.34 -11.32 0.68 -12 0 C-10.56359829 -0.19573608 -9.12580496 -0.38127816 -7.6875 -0.5625 C-6.88699219 -0.66691406 -6.08648438 -0.77132812 -5.26171875 -0.87890625 C-3 -1 -3 -1 0 0 Z " fill="#161716" transform="translate(623,689)"/>
<path d="M0 0 C5.94 0 11.88 0 18 0 C18.33 0.99 18.66 1.98 19 3 C18.01 3 17.02 3 16 3 C15.67 3.66 15.34 4.32 15 5 C15 4.34 15 3.68 15 3 C13.68 3 12.36 3 11 3 C11 3.66 11 4.32 11 5 C10.01 5.33 9.02 5.66 8 6 C8 5.34 8 4.68 8 4 C5.36 3.01 2.72 2.02 0 1 C0 0.67 0 0.34 0 0 Z " fill="#171918" transform="translate(164,649)"/>
<path d="M0 0 C0.99 0 1.98 0 3 0 C4.65 3.63 6.3 7.26 8 11 C6.68 11.99 5.36 12.98 4 14 C3.34 13.34 2.68 12.68 2 12 C2.66 10.68 3.32 9.36 4 8 C3.360625 7.773125 2.72125 7.54625 2.0625 7.3125 C0 6 0 6 -0.8125 3.4375 C-0.874375 2.633125 -0.93625 1.82875 -1 1 C-0.67 0.67 -0.34 0.34 0 0 Z " fill="#131414" transform="translate(566,803)"/>
<path d="M0 0 C12.54 0 25.08 0 38 0 C38 0.33 38 0.66 38 1 C21.665 1.495 21.665 1.495 5 2 C5 2.66 5 3.32 5 4 C4.34 4 3.68 4 3 4 C3 3.01 3 2.02 3 1 C2.01 0.67 1.02 0.34 0 0 Z " fill="#1A1B1C" transform="translate(187,716)"/>
<path d="M0 0 C0.66 0 1.32 0 2 0 C2 0.66 2 1.32 2 2 C2.66 2 3.32 2 4 2 C4.33 2.99 4.66 3.98 5 5 C5.99 4.34 6.98 3.68 8 3 C7.3125 4.9375 7.3125 4.9375 6 7 C3.8125 7.625 3.8125 7.625 1 8 C-1.33762223 8.65146849 -3.67190457 9.31526605 -6 10 C-5.34 9.21625 -4.68 8.4325 -4 7.625 C-1.79798559 5.28487188 -1.79798559 5.28487188 -2 3 C-1.34 3 -0.68 3 0 3 C0 2.01 0 1.02 0 0 Z " fill="#0C0D0E" transform="translate(476,467)"/>
<path d="M0 0 C-0.639375 0.391875 -1.27875 0.78375 -1.9375 1.1875 C-4.48400312 3.42533608 -4.43011765 4.74352944 -5 8 C-6.5625 9.8125 -6.5625 9.8125 -8 11 C-8.99 10.34 -9.98 9.68 -11 9 C-10.34 8.34 -9.68 7.68 -9 7 C-9 6.01 -9 5.02 -9 4 C-6.23148774 0.41118781 -4.51244784 -0.50138309 0 0 Z M-10 11 C-9.01 11.495 -9.01 11.495 -8 12 C-8.99 12.495 -8.99 12.495 -10 13 C-10 12.34 -10 11.68 -10 11 Z " fill="#1A1B1B" transform="translate(515,371)"/>
<path d="M0 0 C0 3 0 3 -1.35546875 4.60546875 C-6.34806732 8.91677455 -6.34806732 8.91677455 -9.9375 9.375 C-10.618125 9.25125 -11.29875 9.1275 -12 9 C-12 6 -12 6 -11 4 C-8.30114269 3.42577504 -5.76207303 3 -3 3 C-1.37485532 1.54166642 -1.37485532 1.54166642 0 0 Z " fill="#0C0D0D" transform="translate(219,767)"/>
<path d="M0 0 C4.95 0 9.9 0 15 0 C15 0.33 15 0.66 15 1 C14.21753906 1.12117187 13.43507813 1.24234375 12.62890625 1.3671875 C11.61699219 1.53476562 10.60507812 1.70234375 9.5625 1.875 C8.55316406 2.03742187 7.54382813 2.19984375 6.50390625 2.3671875 C5.67761719 2.57601562 4.85132813 2.78484375 4 3 C3.67 3.66 3.34 4.32 3 5 C3.33 5.99 3.66 6.98 4 8 C2.68 8 1.36 8 0 8 C0 7.01 0 6.02 0 5 C-0.66 4.67 -1.32 4.34 -2 4 C-1.34 2.68 -0.68 1.36 0 0 Z " fill="#080809" transform="translate(393,766)"/>
<path d="M0 0 C2.98704569 0.49784095 4.39324263 1.26216175 7 3 C6.01 3.495 6.01 3.495 5 4 C5 4.928125 5 5.85625 5 6.8125 C5 8.875 5 10.9375 5 13 C0.64492352 9.51593882 -0.04386486 6.30220396 -1 1 C-0.67 0.67 -0.34 0.34 0 0 Z " fill="#0C0D0D" transform="translate(426,441)"/>
<path d="M0 0 C1.15941038 3.47823115 0.70820884 5.45895578 0 9 C-0.66 9 -1.32 9 -2 9 C-2.33 12.63 -2.66 16.26 -3 20 C-3.33 20 -3.66 20 -4 20 C-4.33 15.38 -4.66 10.76 -5 6 C-4.34 6 -3.68 6 -3 6 C-2.87625 5.195625 -2.7525 4.39125 -2.625 3.5625 C-2.41875 2.716875 -2.2125 1.87125 -2 1 C-1.34 0.67 -0.68 0.34 0 0 Z " fill="#090909" transform="translate(322,722)"/>
<path d="M0 0 C1.65 0.33 3.3 0.66 5 1 C5.59732819 3.76264289 6 6.16032769 6 9 C3.36 8.34 0.72 7.68 -2 7 C-1.34 6.67 -0.68 6.34 0 6 C0 4.02 0 2.04 0 0 Z " fill="#171819" transform="translate(325,699)"/>
<path d="M0 0 C-3 2 -3 2 -5 3 C-4.01 3.99 -3.02 4.98 -2 6 C-4.07553648 6.5534764 -5.84365964 7 -8 7 C-8.33 6.01 -8.66 5.02 -9 4 C-10.98 4.66 -12.96 5.32 -15 6 C-11.31946413 1.45345569 -5.73670284 -0.52151844 0 0 Z " fill="#090A0A" transform="translate(389,688)"/>
<path d="M0 0 C0.66 0 1.32 0 2 0 C2.33 0.66 2.66 1.32 3 2 C3.99 2 4.98 2 6 2 C6 2.99 6 3.98 6 5 C6.66 5.33 7.32 5.66 8 6 C8.33 5.01 8.66 4.02 9 3 C9 4.32 9 5.64 9 7 C5.37 7 1.74 7 -2 7 C-1.67 6.34 -1.34 5.68 -1 5 C-0.34 5.33 0.32 5.66 1 6 C1 5.34 1 4.68 1 4 C0.34 3.67 -0.32 3.34 -1 3 C-0.67 2.01 -0.34 1.02 0 0 Z " fill="#161716" transform="translate(485,777)"/>
<path d="M0 0 C3.3 0 6.6 0 10 0 C7.25 5.875 7.25 5.875 5 7 C5 6.01 5 5.02 5 4 C3.35 3.67 1.7 3.34 0 3 C0 2.01 0 1.02 0 0 Z " fill="#0A0B0B" transform="translate(860,686)"/>
<path d="M0 0 C4.67692308 1.47692308 4.67692308 1.47692308 6.3125 4.125 C6.539375 4.74375 6.76625 5.3625 7 6 C5.68 6.99 4.36 7.98 3 9 C3 8.34 3 7.68 3 7 C2.34 7 1.68 7 1 7 C0.34 5.02 -0.32 3.04 -1 1 C-0.67 0.67 -0.34 0.34 0 0 Z " fill="#191919" transform="translate(560,378)"/>
<path d="M0 0 C2 2 2 2 3 4 C3.99 3.34 4.98 2.68 6 2 C4.4169423 6.2742558 1.49431596 8.26531794 -2 11 C-1.34 9.35 -0.68 7.7 0 6 C-1.65 6.66 -3.3 7.32 -5 8 C-4.01 6.02 -3.02 4.04 -2 2 C-1.34 2 -0.68 2 0 2 C0 1.34 0 0.68 0 0 Z " fill="#0A0B0A" transform="translate(633,303)"/>
<path d="M0 0 C1.65 0.33 3.3 0.66 5 1 C4.01 1.33 3.02 1.66 2 2 C2 3.32 2 4.64 2 6 C2.99 6.33 3.98 6.66 5 7 C3.41870971 7.22331199 1.83478911 7.42804644 0.25 7.625 C-1.07257812 7.79902344 -1.07257812 7.79902344 -2.421875 7.9765625 C-5.22859878 8.00207817 -6.63384866 7.44843844 -9 6 C-5.71023192 4.90341064 -4.28696233 5.20046862 -1 6 C-0.67 4.02 -0.34 2.04 0 0 Z " fill="#181919" transform="translate(859,780)"/>
<path d="M0 0 C0.12375 0.61875 0.2475 1.2375 0.375 1.875 C0.87197356 4.19120832 0.87197356 4.19120832 3 6 C1.35 6 -0.3 6 -2 6 C0.97 6.495 0.97 6.495 4 7 C4 7.33 4 7.66 4 8 C-0.62 8.33 -5.24 8.66 -10 9 C-7 7 -7 7 -4 7 C-4 6.01 -4 5.02 -4 4 C-2.66666667 2.66666667 -1.33333333 1.33333333 0 0 Z " fill="#1A1C1B" transform="translate(399,779)"/>
<path d="M0 0 C1.98 0.495 1.98 0.495 4 1 C3.67 2.65 3.34 4.3 3 6 C4.32 5.67 5.64 5.34 7 5 C7 5.66 7 6.32 7 7 C7.99 7.33 8.98 7.66 10 8 C8.54119891 7.85892253 7.08296449 7.71197585 5.625 7.5625 C4.40683594 7.44068359 4.40683594 7.44068359 3.1640625 7.31640625 C1 7 1 7 -1 6 C-0.67 4.02 -0.34 2.04 0 0 Z " fill="#0A0B0B" transform="translate(275,779)"/>
<path d="M0 0 C0.66 0 1.32 0 2 0 C1.979375 0.969375 1.95875 1.93875 1.9375 2.9375 C1.64381501 5.87465895 1.64381501 5.87465895 3 7 C3.66 6.34 4.32 5.68 5 5 C5.625 7.375 5.625 7.375 6 10 C5.34 10.66 4.68 11.32 4 12 C2 10 2 10 1 7.4375 C0.25129886 4.85158559 0.25129886 4.85158559 -2 4 C-1.34 4 -0.68 4 0 4 C-0.33 3.01 -0.66 2.02 -1 1 C-0.67 0.67 -0.34 0.34 0 0 Z M-1 8 C1 9 1 9 1 9 Z " fill="#171818" transform="translate(795,741)"/>
<path d="M0 0 C0.33 0 0.66 0 1 0 C1 1.65 1 3.3 1 5 C1.598125 4.690625 2.19625 4.38125 2.8125 4.0625 C5 3 5 3 8 2 C8.66 2.33 9.32 2.66 10 3 C9.27683594 3.61488281 9.27683594 3.61488281 8.5390625 4.2421875 C7.90742187 4.78101563 7.27578125 5.31984375 6.625 5.875 C5.99851562 6.40867187 5.37203125 6.94234375 4.7265625 7.4921875 C3.44163349 8.61432007 2.20628025 9.79371975 1 11 C-0.28317892 7.15046324 -0.06643637 4.05261865 0 0 Z " fill="#090A0A" transform="translate(107,728)"/>
<path d="M0 0 C1.32 0 2.64 0 4 0 C4 0.99 4 1.98 4 3 C4.66 3 5.32 3 6 3 C5 6 5 6 3 9 C2.34 8.67 1.68 8.34 1 8 C1 7.34 1 6.68 1 6 C0.34 5.67 -0.32 5.34 -1 5 C-0.67 3.35 -0.34 1.7 0 0 Z " fill="#141516" transform="translate(442,751)"/>
<path d="M0 0 C0.66 0.33 1.32 0.66 2 1 C2.4140625 3.50390625 2.4140625 3.50390625 2.625 6.5625 C2.69976563 7.57441406 2.77453125 8.58632813 2.8515625 9.62890625 C2.90054688 10.41136719 2.94953125 11.19382812 3 12 C0.5 9.6875 0.5 9.6875 -2 7 C-2 3.89448334 -1.4606285 2.64738916 0 0 Z " fill="#1A1B1B" transform="translate(804,699)"/>
<path d="M0 0 C1.19319996 4.77279983 0.07529627 5.84940746 -2 10 C-2.66 10 -3.32 10 -4 10 C-4 9.01 -4 8.02 -4 7 C-4.99 7.99 -5.98 8.98 -7 10 C-7.66 9.67 -8.32 9.34 -9 9 C-6.03 6.03 -3.06 3.06 0 0 Z " fill="#070808" transform="translate(524,357)"/>
<path d="M0 0 C0 1.32 0 2.64 0 4 C-0.99 4 -1.98 4 -3 4 C-3.33 4.66 -3.66 5.32 -4 6 C-4.99 5.67 -5.98 5.34 -7 5 C-6.67 4.01 -6.34 3.02 -6 2 C-6.99 1.67 -7.98 1.34 -9 1 C-5.57367167 -0.61798838 -3.61944899 -1.34053666 0 0 Z " fill="#0D0D0D" transform="translate(758,760)"/>
<path d="M0 0 C0.99 0.33 1.98 0.66 3 1 C3.94921875 3.06640625 3.94921875 3.06640625 4.6875 5.5625 C4.93886719 6.38878906 5.19023437 7.21507812 5.44921875 8.06640625 C5.63097656 8.70449219 5.81273437 9.34257813 6 10 C5.01 10.33 4.02 10.66 3 11 C0 5.375 0 5.375 0 2 C-0.66 1.67 -1.32 1.34 -2 1 C-1.34 0.67 -0.68 0.34 0 0 Z " fill="#181919" transform="translate(135,733)"/>
<path d="M0 0 C0.8971875 0.5259375 0.8971875 0.5259375 1.8125 1.0625 C1.4825 1.7225 1.1525 2.3825 0.8125 3.0625 C-0.4559375 2.876875 -0.4559375 2.876875 -1.75 2.6875 C-6.56704657 3.21299599 -8.84176845 5.73656568 -12.1875 9.0625 C-10.44149339 5.28887281 -8.28909421 2.86149966 -5.1875 0.0625 C-2.1875 -0.9375 -2.1875 -0.9375 0 0 Z " fill="#080909" transform="translate(839.1875,695.9375)"/>
<path d="M0 0 C0.99 0 1.98 0 3 0 C3 1.32 3 2.64 3 4 C3.66 3.01 4.32 2.02 5 1 C5 4.3 5 7.6 5 11 C4.67 9.68 4.34 8.36 4 7 C1.50965614 5.70339566 1.50965614 5.70339566 -1 5 C-0.67 3.35 -0.34 1.7 0 0 Z M-3 5 C-2.01 5.495 -2.01 5.495 -1 6 C-1.99 6.495 -1.99 6.495 -3 7 C-3 6.34 -3 5.68 -3 5 Z " fill="#0B0C0C" transform="translate(490,677)"/>
<path d="M0 0 C0.33 0 0.66 0 1 0 C1.73822782 5.07531629 2.08270707 9.89190645 1.9375 15.01953125 C1.91219252 17.21348853 1.91219252 17.21348853 3 20 C1.35 19.67 -0.3 19.34 -2 19 C-1.84660156 18.49984375 -1.69320312 17.9996875 -1.53515625 17.484375 C-0.80542604 14.09672234 -0.63643523 10.70038481 -0.4375 7.25 C-0.39431641 6.55261719 -0.35113281 5.85523438 -0.30664062 5.13671875 C-0.20110404 3.42468078 -0.1001009 1.71236439 0 0 Z " fill="#1C1D1D" transform="translate(779,711)"/>
<path d="M0 0 C-0.33 0.99 -0.66 1.98 -1 3 C-2.6875 3.625 -2.6875 3.625 -5 4 C-6.0725 4.185625 -7.145 4.37125 -8.25 4.5625 C-9.1575 4.706875 -10.065 4.85125 -11 5 C-11 4.01 -11 3.02 -11 2 C-7.12315913 0.80712589 -4.08378077 0 0 0 Z " fill="#1A1A1B" transform="translate(161,650)"/>
<path d="M0 0 C1.32 0.66 2.64 1.32 4 2 C3.01 2.66 2.02 3.32 1 4 C0.34 3.01 -0.32 2.02 -1 1 C-0.67 0.67 -0.34 0.34 0 0 Z M-2 4 C-1.01 4 -0.02 4 1 4 C1.103125 4.61875 1.20625 5.2375 1.3125 5.875 C1.87525373 8.36526484 1.87525373 8.36526484 5 10 C4.67 10.66 4.34 11.32 4 12 C-0.6875 8.38671875 -0.6875 8.38671875 -2 7 C-2 6.01 -2 5.02 -2 4 Z " fill="#0B0C0C" transform="translate(318,558)"/>
<path d="M0 0 C3.63 0 7.26 0 11 0 C11 2.31 11 4.62 11 7 C10.01 7 9.02 7 8 7 C7.34 6.01 6.68 5.02 6 4 C6.66 3.34 7.32 2.68 8 2 C5.36 1.67 2.72 1.34 0 1 C0 0.67 0 0.34 0 0 Z " fill="#080909" transform="translate(388,351)"/>
<path d="M0 0 C0.66 0.66 1.32 1.32 2 2 C0.125 6.75 0.125 6.75 -1 9 C-1.99 8.67 -2.98 8.34 -4 8 C-4.33 7.01 -4.66 6.02 -5 5 C-3.35 3.35 -1.7 1.7 0 0 Z " fill="#191A1A" transform="translate(579,298)"/>
<path d="M0 0 C0.87269531 -0.01417969 1.74539063 -0.02835938 2.64453125 -0.04296875 C5.29669085 0.19739594 6.91214999 0.84562691 9.1875 2.1875 C7.06381556 2.40884176 4.93845976 2.61420007 2.8125 2.8125 C1.62914062 2.92851563 0.44578125 3.04453125 -0.7734375 3.1640625 C-1.77632813 3.17179688 -2.77921875 3.17953125 -3.8125 3.1875 C-4.4725 2.5275 -5.1325 1.8675 -5.8125 1.1875 C-4.16504404 -0.45995596 -2.25914549 0.0165384 0 0 Z " fill="#060606" transform="translate(295.8125,685.8125)"/>
<path d="M0 0 C-0.33 0.99 -0.66 1.98 -1 3 C0.98 3 2.96 3 5 3 C2.23776722 5.76223278 -0.20706617 5.57856291 -4 6 C-4.66 5.01 -5.32 4.02 -6 3 C-3.375 0 -3.375 0 0 0 Z " fill="#090A0A" transform="translate(665,574)"/>
<path d="M0 0 C0 0.99 0 1.98 0 3 C0.3062434 4.33981486 0.63451555 5.67511887 1 7 C0.278125 6.9175 -0.44375 6.835 -1.1875 6.75 C-4.83548794 7.07426559 -6.34568298 8.57319587 -9 11 C-7.59155282 7.78475695 -5.89655214 5.67816132 -3.375 3.25 C-2.74335937 2.63640625 -2.11171875 2.0228125 -1.4609375 1.390625 C-0.73777344 0.70226562 -0.73777344 0.70226562 0 0 Z " fill="#070707" transform="translate(589,288)"/>
<path d="M0 0 C0.33 0 0.66 0 1 0 C1.16852247 1.60397277 1.33474886 3.2081869 1.5 4.8125 C1.5928125 5.70582031 1.685625 6.59914063 1.78125 7.51953125 C2 10 2 10 2 13 C1.01 13.33 0.02 13.66 -1 14 C-1.18451025 4.58997722 -1.18451025 4.58997722 0 0 Z " fill="#0A0A0A" transform="translate(532,809)"/>
<path d="M0 0 C2.97 0 5.94 0 9 0 C7.68 0.99 6.36 1.98 5 3 C5.33 4.32 5.66 5.64 6 7 C5.01 6.67 4.02 6.34 3 6 C2.67 5.01 2.34 4.02 2 3 C1.34 2.67 0.68 2.34 0 2 C0 1.34 0 0.68 0 0 Z " fill="#080808" transform="translate(395,686)"/>
<path d="M0 0 C-0.969375 0.45375 -1.93875 0.9075 -2.9375 1.375 C-6.07079582 2.65786221 -6.07079582 2.65786221 -7 5 C-8.32 4.67 -9.64 4.34 -11 4 C-11 3.34 -11 2.68 -11 2 C-10.01 2 -9.02 2 -8 2 C-8 1.34 -8 0.68 -8 0 C-4.94736336 -0.98120464 -3.05263664 -0.98120464 0 0 Z " fill="#171817" transform="translate(750,653)"/>
<path d="M0 0 C2.64 0 5.28 0 8 0 C7.01 1.485 7.01 1.485 6 3 C6.66 3.33 7.32 3.66 8 4 C7.67 4.99 7.34 5.98 7 7 C5.68 6.67 4.36 6.34 3 6 C3 4.68 3 3.36 3 2 C2.01 1.34 1.02 0.68 0 0 Z " fill="#0B0B0B" transform="translate(161,650)"/>
<path d="M0 0 C1.16512384 3.49537151 2 6.3040893 2 10 C-0.31 7.69 -2.62 5.38 -5 3 C-2 1 -2 1 0 0 Z " fill="#070808" transform="translate(437,452)"/>
<path d="M0 0 C1.32 0.66 2.64 1.32 4 2 C2.88671875 3.48828125 2.88671875 3.48828125 1 5 C-1.91796875 5.29296875 -1.91796875 5.29296875 -5.1875 5.1875 C-6.27417969 5.16042969 -7.36085938 5.13335938 -8.48046875 5.10546875 C-9.31191406 5.07066406 -10.14335937 5.03585937 -11 5 C-11 4.67 -11 4.34 -11 4 C-5.555 3.01 -5.555 3.01 0 2 C0 1.34 0 0.68 0 0 Z " fill="#070707" transform="translate(406,703)"/>
<path d="M0 0 C1.66666667 0 3.33333333 0 5 0 C5 0.66 5 1.32 5 2 C5.66 2.33 6.32 2.66 7 3 C6.34 3.66 5.68 4.32 5 5 C1.875 4.625 1.875 4.625 -1 4 C-0.67 2.68 -0.34 1.36 0 0 Z " fill="#181A19" transform="translate(473,660)"/>
<path d="M0 0 C3.28788824 3.11016455 5.83735988 6.01618925 8 10 C7.01 10.33 6.02 10.66 5 11 C5 10.01 5 9.02 5 8 C3.68 8.33 2.36 8.66 1 9 C1.20625 8.443125 1.4125 7.88625 1.625 7.3125 C2.10695211 4.340462 1.26565028 2.68020059 0 0 Z " fill="#0C0C0C" transform="translate(324,531)"/>
<path d="M0 0 C0.33 0 0.66 0 1 0 C1.05416188 1.60379341 1.09286638 3.20811406 1.125 4.8125 C1.14820313 5.70582031 1.17140625 6.59914063 1.1953125 7.51953125 C1 10 1 10 -1 13 C-2.53690745 10.58959839 -3.09752136 9.49917715 -2.5390625 6.640625 C-2.23742187 5.85171875 -1.93578125 5.0628125 -1.625 4.25 C-1.32851563 3.45078125 -1.03203125 2.6515625 -0.7265625 1.828125 C-0.48679687 1.22484375 -0.24703125 0.6215625 0 0 Z " fill="#1E1E1E" transform="translate(646,285)"/>
<path d="M0 0 C0 1.66666667 0 3.33333333 0 5 C-4.29 5 -8.58 5 -13 5 C-10 3 -10 3 -7.0625 3.0625 C-3.59719567 2.9917795 -2.49561651 2.30364601 0 0 Z " fill="#171818" transform="translate(508,195)"/>
<path d="M0 0 C0.66 0 1.32 0 2 0 C2 1.32 2 2.64 2 4 C2.66 4.33 3.32 4.66 4 5 C-1.17578125 8.22265625 -1.17578125 8.22265625 -3 9 C-3.99 8.67 -4.98 8.34 -6 8 C-4.7934375 7.4121875 -4.7934375 7.4121875 -3.5625 6.8125 C-0.76935262 5.23051809 -0.76935262 5.23051809 -0.1875 2.3125 C-0.125625 1.549375 -0.06375 0.78625 0 0 Z " fill="#080809" transform="translate(775,770)"/>
<path d="M0 0 C2.31 0.33 4.62 0.66 7 1 C6.6875 2.875 6.6875 2.875 6 5 C5.01 5.66 4.02 6.32 3 7 C2 4 2 4 3 1 C2.01 0.67 1.02 0.34 0 0 Z " fill="#0B0C0B" transform="translate(755,654)"/>
<path d="M0 0 C0.66 0.33 1.32 0.66 2 1 C2 1.66 2 2.32 2 3 C1.34 3 0.68 3 0 3 C0 3.99 0 4.98 0 6 C-0.66 6 -1.32 6 -2 6 C-2.33 6.66 -2.66 7.32 -3 8 C-3.66 6.68 -4.32 5.36 -5 4 C-4.34 3.34 -3.68 2.68 -3 2 C-2.01 2 -1.02 2 0 2 C0 1.34 0 0.68 0 0 Z " fill="#0D0E0E" transform="translate(330,565)"/>
<path d="M0 0 C2.125 0.9375 2.125 0.9375 4 2 C3.34 3.32 2.68 4.64 2 6 C1.01 6 0.02 6 -1 6 C-1.33 4.35 -1.66 2.7 -2 1 C-1.34 0.67 -0.68 0.34 0 0 Z " fill="#1D1D1D" transform="translate(531,414)"/>
<path d="M0 0 C0.66 0 1.32 0 2 0 C3.25 7.625 3.25 7.625 1 11 C0.01 11.495 0.01 11.495 -1 12 C-0.9278125 11.38511719 -0.855625 10.77023437 -0.78125 10.13671875 C-0.64203125 8.92435547 -0.64203125 8.92435547 -0.5 7.6875 C-0.4071875 6.88699219 -0.314375 6.08648438 -0.21875 5.26171875 C0.04813463 2.88103445 0.04813463 2.88103445 0 0 Z " fill="#1B1C1C" transform="translate(230,739)"/>
<path d="M0 0 C0.66 0 1.32 0 2 0 C1.67 1.32 1.34 2.64 1 4 C1.99 3.67 2.98 3.34 4 3 C5.43088528 5.86177057 4.59991697 7.93375773 4 11 C2 9 2 9 1 7 C0.67 6.67 0.34 6.34 0 6 C-0.04080783 4.00041636 -0.04254356 1.99954746 0 0 Z " fill="#121313" transform="translate(490,671)"/>
<path d="M0 0 C0.99 0.33 1.98 0.66 3 1 C2.34 1 1.68 1 1 1 C1.495 1.433125 1.99 1.86625 2.5 2.3125 C4 4 4 4 4 7 C0.73045798 6.43628586 -0.82575883 5.50037734 -3 3 C-2.01 2.01 -1.02 1.02 0 0 Z " fill="#1C1D1D" transform="translate(461,473)"/>
<path d="M0 0 C2.31 0 4.62 0 7 0 C5.75 2.5 5.75 2.5 4 5 C2.68 5 1.36 5 0 5 C-0.33 4.34 -0.66 3.68 -1 3 C-0.67 2.01 -0.34 1.02 0 0 Z " fill="#151616" transform="translate(610,265)"/>
<path d="M0 0 C3.36720387 1.39332574 4.9859524 2.9789286 7 6 C5.68 6.33 4.36 6.66 3 7 C3 6.01 3 5.02 3 4 C2.01 3.67 1.02 3.34 0 3 C0 2.01 0 1.02 0 0 Z " fill="#1C1D1D" transform="translate(694,191)"/>
<path d="M0 0 C2 3 2 3 2 5 C3.32 5.33 4.64 5.66 6 6 C3.69 6.33 1.38 6.66 -1 7 C-1.66 6.01 -2.32 5.02 -3 4 C-2.01 4 -1.02 4 0 4 C-0.33 3.01 -0.66 2.02 -1 1 C-0.67 0.67 -0.34 0.34 0 0 Z " fill="#0A0A0A" transform="translate(304,780)"/>
<path d="M0 0 C0.33 0 0.66 0 1 0 C1.33 2.64 1.66 5.28 2 8 C0.02 8.99 0.02 8.99 -2 10 C-1.85950482 8.52031676 -1.71245174 7.04125484 -1.5625 5.5625 C-1.48128906 4.73878906 -1.40007812 3.91507813 -1.31640625 3.06640625 C-1 1 -1 1 0 0 Z " fill="#1A1B1B" transform="translate(269,723)"/>
<path d="M0 0 C0.66 1.32 1.32 2.64 2 4 C1.34 4 0.68 4 0 4 C0 5.32 0 6.64 0 8 C-0.99 7.67 -1.98 7.34 -3 7 C-3 5.02 -3 3.04 -3 1 C-2.01 0.67 -1.02 0.34 0 0 Z " fill="#181919" transform="translate(274,689)"/>
<path d="M0 0 C2.125 0.9375 2.125 0.9375 4 2 C3.625 3.9375 3.625 3.9375 3 6 C2.01 6.495 2.01 6.495 1 7 C-0.5 5.6875 -0.5 5.6875 -2 4 C-2 3.01 -2 2.02 -2 1 C-1.34 0.67 -0.68 0.34 0 0 Z " fill="#161717" transform="translate(294,526)"/>
<path d="M0 0 C0.99 1.32 1.98 2.64 3 4 C1.68 5.32 0.36 6.64 -1 8 C-1.66 7.34 -2.32 6.68 -3 6 C-2.01 4.02 -1.02 2.04 0 0 Z " fill="#191A1A" transform="translate(571,809)"/>
<path d="M0 0 C0.33 0.66 0.66 1.32 1 2 C1.99 2.33 2.98 2.66 4 3 C3.01 4.485 3.01 4.485 2 6 C-0.475 5.01 -0.475 5.01 -3 4 C-3 3.34 -3 2.68 -3 2 C-2.01 1.34 -1.02 0.68 0 0 Z " fill="#1B1B1B" transform="translate(226,751)"/>
<path d="M0 0 C0.99 0 1.98 0 3 0 C3.93423645 3.01031744 4.04449911 3.86650268 3 7 C2.01 7.33 1.02 7.66 0 8 C-0.33 7.01 -0.66 6.02 -1 5 C-0.34 5 0.32 5 1 5 C0.67 3.35 0.34 1.7 0 0 Z " fill="#181919" transform="translate(549,692)"/>
<path d="M0 0 C0.66 0 1.32 0 2 0 C2 0.66 2 1.32 2 2 C3.32 1.67 4.64 1.34 6 1 C5.34 2.32 4.68 3.64 4 5 C3.34 5 2.68 5 2 5 C2 4.34 2 3.68 2 3 C0.02 3.99 0.02 3.99 -2 5 C-1.125 1.125 -1.125 1.125 0 0 Z " fill="#0A0B0C" transform="translate(476,657)"/>
<path d="M0 0 C1.0326802 2.78823655 1.04509293 3.8677274 0.0625 6.75 C-0.288125 7.4925 -0.63875 8.235 -1 9 C-1.33 8.01 -1.66 7.02 -2 6 C-2.66 6 -3.32 6 -4 6 C-3.0022242 3.00667261 -2.2477975 2.05233685 0 0 Z " fill="#141515" transform="translate(369,371)"/>
<path d="M0 0 C-1.65 1.65 -3.3 3.3 -5 5 C-5.66 3.68 -6.32 2.36 -7 1 C-3.375 -1.125 -3.375 -1.125 0 0 Z " fill="#191A1A" transform="translate(614,333)"/>
<path d="M0 0 C3.37462715 0.54723683 5.08235 1.0549 8 3 C8 3.66 8 4.32 8 5 C6.68 5.33 5.36 5.66 4 6 C3.67 5.01 3.34 4.02 3 3 C2.01 2.67 1.02 2.34 0 2 C0 1.34 0 0.68 0 0 Z " fill="#1B1B1B" transform="translate(387,763)"/>
<path d="M0 0 C0 0.66 0 1.32 0 2 C-1.62626404 3.38232443 -3.2925002 4.71937515 -5 6 C-5.66 5.67 -6.32 5.34 -7 5 C-6.6875 3.0625 -6.6875 3.0625 -6 1 C-3 0 -3 0 0 0 Z " fill="#1F201F" transform="translate(430,725)"/>
<path d="M0 0 C0.66 0.33 1.32 0.66 2 1 C0.26440562 4.057952 -1.38472619 6.63379989 -4 9 C-3.6875 5.625 -3.6875 5.625 -3 2 C-2.01 1.34 -1.02 0.68 0 0 Z " fill="#171818" transform="translate(850,710)"/>
<path d="M0 0 C3.43595166 1.52708963 6.11912454 3.59927045 9 6 C8.01 6.33 7.02 6.66 6 7 C6 6.34 6 5.68 6 5 C4.02 4.34 2.04 3.68 0 3 C0 2.01 0 1.02 0 0 Z " fill="#1C1B1C" transform="translate(276,759)"/>
<path d="M0 0 C2 3.75 2 3.75 2 6 C0.35 6 -1.3 6 -3 6 C-3.33 5.01 -3.66 4.02 -4 3 C-3.01 2.67 -2.02 2.34 -1 2 C-0.67 1.34 -0.34 0.68 0 0 Z " fill="#1A1A1A" transform="translate(377,744)"/>
<path d="M0 0 C0 0.66 0 1.32 0 2 C-1.98 2 -3.96 2 -6 2 C-6 2.66 -6 3.32 -6 4 C-6.99 4.33 -7.98 4.66 -9 5 C-8.67 3.68 -8.34 2.36 -8 1 C-5.10765685 0.17361624 -3.11257569 0 0 0 Z " fill="#18191A" transform="translate(860,686)"/>
<path d="M0 0 C0.66 0 1.32 0 2 0 C1 4 1 4 0 8 C-1.32 7.67 -2.64 7.34 -4 7 C-4 5 -4 5 -2.5625 3.5 C-2.046875 3.005 -1.53125 2.51 -1 2 C-0.67 1.34 -0.34 0.68 0 0 Z " fill="#171818" transform="translate(344,549)"/>
<path d="M0 0 C1.32 0.66 2.64 1.32 4 2 C4 2.99 4 3.98 4 5 C2.35 4.67 0.7 4.34 -1 4 C-0.67 2.68 -0.34 1.36 0 0 Z " fill="#1E1F1F" transform="translate(431,382)"/>
<path d="M0 0 C1.65 0.33 3.3 0.66 5 1 C4.34 2.32 3.68 3.64 3 5 C1.68 5 0.36 5 -1 5 C-0.67 3.35 -0.34 1.7 0 0 Z " fill="#1E1F1F" transform="translate(873,783)"/>
<path d="M0 0 C1.32 0.99 2.64 1.98 4 3 C2.68 3 1.36 3 0 3 C-0.33 4.32 -0.66 5.64 -1 7 C-2.32 6.67 -3.64 6.34 -5 6 C-4.01 6 -3.02 6 -2 6 C-1.34 4.02 -0.68 2.04 0 0 Z " fill="#1C1D1C" transform="translate(160,780)"/>
<path d="M0 0 C-0.66 1.65 -1.32 3.3 -2 5 C-3.32 4.67 -4.64 4.34 -6 4 C-6 2.68 -6 1.36 -6 0 C-2.25 -1.125 -2.25 -1.125 0 0 Z " fill="#0B0B0B" transform="translate(114,700)"/>
<path d="M0 0 C0.66 0.33 1.32 0.66 2 1 C1.34 2.65 0.68 4.3 0 6 C-0.66 6 -1.32 6 -2 6 C-2 5.34 -2 4.68 -2 4 C-2.66 3.67 -3.32 3.34 -4 3 C-2.68 2.01 -1.36 1.02 0 0 Z " fill="#181919" transform="translate(480,653)"/>
<path d="M0 0 C0.99 0.33 1.98 0.66 3 1 C1.25 4.875 1.25 4.875 -1 6 C-1.33 4.35 -1.66 2.7 -2 1 C-1.34 0.67 -0.68 0.34 0 0 Z " fill="#1B1C1C" transform="translate(578,366)"/>
<path d="M0 0 C0.33 0.66 0.66 1.32 1 2 C1.66 2 2.32 2 3 2 C3 2.66 3 3.32 3 4 C-0.01031744 4.93423645 -0.86650268 5.04449911 -4 4 C-4 3.34 -4 2.68 -4 2 C-2.68 1.34 -1.36 0.68 0 0 Z " fill="#161717" transform="translate(566,784)"/>
<path d="M0 0 C0.66 0.33 1.32 0.66 2 1 C-0.625 4.875 -0.625 4.875 -4 6 C-4 4.68 -4 3.36 -4 2 C-2.125 0.9375 -2.125 0.9375 0 0 Z " fill="#161718" transform="translate(874,764)"/>
<path d="M0 0 C0.66 0.66 1.32 1.32 2 2 C1.34 2.66 0.68 3.32 0 4 C-0.64767793 6.57061311 -0.64767793 6.57061311 -1 9 C-1.66 8.34 -2.32 7.68 -3 7 C-2.75 3.9375 -2.75 3.9375 -2 1 C-1.34 0.67 -0.68 0.34 0 0 Z " fill="#171818" transform="translate(382,712)"/>
<path d="M0 0 C1.98 0.495 1.98 0.495 4 1 C3.67 2.65 3.34 4.3 3 6 C1 5 1 5 -1 2 C-0.67 1.34 -0.34 0.68 0 0 Z " fill="#18191A" transform="translate(188,673)"/>
</svg>
